<?xml version="1.0" encoding="UTF-8" standalone="no"?>
<!-- Created with Inkscape (http://www.inkscape.org/) -->

<svg
   xmlns:dc="http://purl.org/dc/elements/1.1/"
   xmlns:cc="http://creativecommons.org/ns#"
   xmlns:rdf="http://www.w3.org/1999/02/22-rdf-syntax-ns#"
   xmlns:svg="http://www.w3.org/2000/svg"
   xmlns="http://www.w3.org/2000/svg"
   xmlns:sodipodi="http://sodipodi.sourceforge.net/DTD/sodipodi-0.dtd"
   xmlns:inkscape="http://www.inkscape.org/namespaces/inkscape"
   width="210mm"
   height="297mm"
   viewBox="0 0 210 297"
   version="1.1"
   id="svg8"
   inkscape:version="0.92.5 (2060ec1f9f, 2020-04-08)"
   sodipodi:docname="Earth-chan_V2.svg">
  <defs
     id="defs2" />
  <sodipodi:namedview
     id="base"
     pagecolor="#ffffff"
     bordercolor="#666666"
     borderopacity="1.0"
     inkscape:pageopacity="0.0"
     inkscape:pageshadow="2"
     inkscape:zoom="1"
     inkscape:cx="415.01868"
     inkscape:cy="555.73119"
     inkscape:document-units="mm"
     inkscape:current-layer="layer1"
     showgrid="false"
     inkscape:window-width="1920"
     inkscape:window-height="1018"
     inkscape:window-x="-8"
     inkscape:window-y="-8"
     inkscape:window-maximized="1" />
  <metadata
     id="metadata5">
    <rdf:RDF>
      <cc:Work
         rdf:about="">
        <dc:format>image/svg+xml</dc:format>
        <dc:type
           rdf:resource="http://purl.org/dc/dcmitype/StillImage" />
        <dc:title></dc:title>
      </cc:Work>
    </rdf:RDF>
  </metadata>
  <g
     inkscape:label="Layer 1"
     inkscape:groupmode="layer"
     id="layer1">
    <circle
       style="fill:#055edb;stroke-width:0.26458332;fill-opacity:1"
       id="path10"
       cx="112.52046"
       cy="148.13087"
       r="55.324791" />
    <ellipse
       style="fill:#008000;stroke-width:0.26458332"
       id="path12"
       cx="97.820641"
       cy="155.88168"
       rx="12.828938"
       ry="20.312483" />
    <ellipse
       style="fill:#008000;stroke-width:0.26458332"
       id="path14"
       cx="137.59787"
       cy="128.81229"
       rx="17.907059"
       ry="12.828938" />
    <ellipse
       style="fill:#008000;stroke-width:0.26458332;fill-opacity:1"
       id="path16"
       cx="84.991699"
       cy="120.60212"
       rx="15.501633"
       ry="16.570711" />
    <ellipse
       style="fill:#008001;stroke-width:0.26458332;fill-opacity:1"
       id="path18"
       cx="88.198944"
       cy="145.1909"
       rx="19.777945"
       ry="16.570711" />
    <ellipse
       style="fill:#008000;stroke-width:0.26458332"
       id="path20"
       cx="110.64958"
       cy="100.55689"
       rx="12.828938"
       ry="7.2162771" />
    <ellipse
       style="fill:#008000;stroke-width:0.33690447"
       id="path22"
       cx="133.8707"
       cy="178.77283"
       rx="15.234364"
       ry="18.976135" />
    <ellipse
       style="fill:#008000;stroke-width:0.26458332"
       id="path24"
       cx="148.60185"
       cy="140.11278"
       rx="9.0871639"
       ry="20.579754" />
    <ellipse
       style="fill:#008000;stroke-width:0.26458332"
       id="path26"
       cx="73.632759"
       cy="177.12962"
       rx="5.0781207"
       ry="9.0871639" />
    <ellipse
       ry="16.570711"
       rx="19.777945"
       cy="145.1909"
       cx="88.198944"
       id="ellipse4536"
       style="fill:#008001;stroke-width:0.26458332;fill-opacity:1" />
    <path
       style="fill:#00cc00;fill-opacity:1;stroke-width:0.14616302"
       d="m 95.752261,175.84616 c -3.360295,-0.74112 -6.572943,-3.67547 -8.537892,-7.7983 -0.734391,-1.54089 -1.530273,-3.83726 -1.857184,-5.35856 -0.141984,-0.66072 -0.327674,-1.21926 -0.41265,-1.24119 -0.08498,-0.0219 -0.776997,-0.15131 -1.537822,-0.2875 -7.162929,-1.28227 -13.096811,-6.13483 -14.834504,-12.13125 -1.531446,-5.28469 -0.03038,-10.5549 4.198313,-14.74011 l 1.446649,-1.43177 -0.792679,-0.90683 c -5.292971,-6.0552 -5.798013,-14.91684 -1.221978,-21.44121 1.493396,-2.12925 4.014168,-4.23644 6.317033,-5.28061 0.552894,-0.25069 1.624039,-0.61277 2.380319,-0.80462 8.168433,-2.07209 16.26902,3.06147 18.527053,11.74109 0.460047,1.76837 0.624181,4.91623 0.353034,6.77064 -0.344266,2.35443 -1.370473,5.1609 -2.473177,6.76363 l -0.448159,0.65137 0.960577,0.47289 c 4.681126,2.30451 8.078636,6.33578 9.259356,10.98657 0.23141,0.9115 0.68774,2.29257 1.01405,3.06905 1.54319,3.67202 2.29565,8.87377 1.92068,13.2776 -0.53813,6.3201 -2.60909,11.42383 -5.99021,14.76247 -2.06313,2.03721 -3.90973,2.908 -6.37069,3.00418 -0.723506,0.0283 -1.57856,-0.007 -1.900119,-0.0775 z"
       id="path4549"
       inkscape:connector-curvature="0" />
    <path
       style="fill:#00cc00;fill-opacity:1;stroke-width:0.55242717"
       d="m 556.42111,606.16641 c -11.54107,-4.1263 -21.45733,-21.60576 -26.08064,-45.9725 -1.11643,-5.88411 -1.94652,-12.54728 -2.60608,-20.91928 l -0.36418,-4.62266 -3.66562,0.3542 c -4.70428,0.45458 -15.78981,-0.46294 -22.48464,-1.86099 -15.34458,-3.20433 -27.81683,-9.77382 -37.09059,-19.53669 -23.29566,-24.52427 -9.73261,-58.45387 28.28825,-70.76647 21.31564,-6.90281 46.94287,-5.1943 66.0605,4.40411 5.68999,2.85678 13.14345,7.82394 16.43985,10.95591 20.19551,19.18806 27.20436,77.38991 14.1313,117.34691 -7.55382,23.08776 -20.28202,35.0316 -32.62815,30.61746 z"
       id="path4551"
       inkscape:connector-curvature="0"
       transform="scale(0.26458333)" />
    <path
       style="fill:#00cc00;fill-opacity:1;stroke-width:0.55242717"
       d="m 496.11713,746.07044 c -10.04903,-2.18184 -18.63427,-7.21559 -26.86053,-15.74903 -21.72387,-22.53507 -26.99735,-61.00492 -12.51615,-91.30495 7.13034,-14.91932 19.43524,-26.87025 32.82376,-31.87954 7.47197,-2.79562 18.05186,-3.55178 26.21674,-1.87373 16.54767,3.40088 32.54317,17.68019 40.51292,36.16619 9.67912,22.45091 9.23958,49.42844 -1.1561,70.95821 -7.19773,14.90672 -19.45982,26.78747 -32.79783,31.77786 -7.26389,2.71777 -18.66472,3.546 -26.22281,1.90499 z"
       id="path4553"
       inkscape:connector-curvature="0"
       transform="scale(0.26458333)" />
    <path
       style="fill:#00cc00;fill-opacity:1;stroke-width:0.55242717"
       d="m 408.44868,406.56864 c -9.15276,-1.11308 -18.40902,-3.99323 -25.05688,-7.79662 -4.13003,-2.36287 -9.49997,-7.54608 -11.43279,-11.03522 -1.44635,-2.61094 -1.62707,-3.46197 -1.62118,-7.63415 0.005,-3.869 0.23711,-5.13023 1.31585,-7.16431 1.97915,-3.73191 3.86539,-5.90968 7.51609,-8.67774 20.93472,-15.87328 63.30644,-14.62397 80.76833,2.38141 7.66202,7.46171 8.50988,16.16791 2.3669,24.30424 -5.07603,6.72315 -16.05501,12.2785 -29.31415,14.83291 -5.71338,1.1007 -18.5797,1.51459 -24.54217,0.78948 z"
       id="path4555"
       inkscape:connector-curvature="0"
       transform="scale(0.26458333)" />
    <path
       style="fill:#00cc00;fill-opacity:1;stroke-width:0.55242717"
       d="m 275.78782,703.298 c -6.63481,-1.58218 -12.85295,-10.52909 -15.18328,-21.84633 -1.53026,-7.43172 -1.24366,-20.46414 0.58921,-26.79271 3.36969,-11.63497 10.16135,-19.31566 17.09424,-19.33188 6.92386,-0.0162 13.354,7.2068 16.98229,19.07623 1.40835,4.60723 1.51409,5.64223 1.52174,14.89497 0.007,8.55313 -0.16089,10.55229 -1.20117,14.29579 -2.87884,10.35974 -8.11217,17.62509 -13.94279,19.3566 -3.20066,0.95049 -3.30493,0.95668 -5.86024,0.34733 z"
       id="path4557"
       inkscape:connector-curvature="0"
       transform="scale(0.26458333)" />
  </g>
</svg>
