<?xml version="1.0" encoding="utf-8"?>
<!-- Generator: Adobe Illustrator 24.1.1, SVG Export Plug-In . SVG Version: 6.00 Build 0)  -->
<svg version="1.1" id="Lag_1" xmlns="http://www.w3.org/2000/svg" xmlns:xlink="http://www.w3.org/1999/xlink" x="0px" y="0px"
	 viewBox="0 0 355 324" style="enable-background:new 0 0 355 324;" xml:space="preserve">
<style type="text/css">
	.st0{fill:#FFD500;}
</style>
<g>
	<g>
		<path class="st0" d="M339.54,69H15.46C6.92,69,0,62.08,0,53.54V15.46C0,6.92,6.92,0,15.46,0h324.09C348.08,0,355,6.92,355,15.46
			v38.09C355,62.08,348.08,69,339.54,69z"/>
	</g>
	<path class="st0" d="M305.38,324h34.25c8.49,0,15.38-6.88,15.38-15.38V15.38C355,6.88,348.12,0,339.62,0h-34.25
		C296.88,0,290,6.88,290,15.38v293.25C290,317.12,296.88,324,305.38,324z"/>
	<path class="st0" d="M43.58,324H16.42C7.35,324,0,316.65,0,307.58L0,16.42C0,7.35,7.35,0,16.42,0h27.15C52.65,0,60,7.35,60,16.42
		v291.15C60,316.65,52.65,324,43.58,324z"/>
	<path class="st0" d="M95,311H82c-12.15,0-22-9.85-22-22v-80c0-12.15,9.85-22,22-22h13c12.15,0,22,9.85,22,22v80
		C117,301.15,107.15,311,95,311z"/>
	<path class="st0" d="M268,311h-13c-12.15,0-22-9.85-22-22v-80c0-12.15,9.85-22,22-22h13c12.15,0,22,9.85,22,22v80
		C290,301.15,280.15,311,268,311z"/>
</g>
</svg>
