<?xml version="1.0" encoding="utf-8"?>
<!-- Generator: Adobe Illustrator 24.1.1, SVG Export Plug-In . SVG Version: 6.00 Build 0)  -->
<svg version="1.1" id="Lag_1" xmlns="http://www.w3.org/2000/svg" xmlns:xlink="http://www.w3.org/1999/xlink" x="0px" y="0px"
	 viewBox="0 0 414.43 414.43" style="enable-background:new 0 0 414.43 414.43;" xml:space="preserve" height="50px" width="50px">
<style type="text/css">
	.st0{fill:#FFD500;}
</style>
<g>
	<g>
		<path class="st0" d="M371.26,127.72H47.17c-8.54,0-15.46-6.92-15.46-15.46V74.17c0-8.54,6.92-15.46,15.46-15.46h324.09
			c8.54,0,15.46,6.92,15.46,15.46v38.09C386.72,120.8,379.8,127.72,371.26,127.72z"/>
	</g>
	<path class="st0" d="M337.09,382.72h34.25c8.49,0,15.38-6.88,15.38-15.38V74.09c0-8.49-6.88-15.38-15.38-15.38h-34.25
		c-8.49,0-15.38,6.88-15.38,15.38v293.25C321.72,375.83,328.6,382.72,337.09,382.72z"/>
	<path class="st0" d="M75.29,382.72H48.14c-9.07,0-16.42-7.35-16.42-16.42V75.14c0-9.07,7.35-16.42,16.42-16.42h27.15
		c9.07,0,16.42,7.35,16.42,16.42v291.15C91.72,375.36,84.36,382.72,75.29,382.72z"/>
	<path class="st0" d="M126.72,369.72h-13c-12.15,0-22-9.85-22-22v-80c0-12.15,9.85-22,22-22h13c12.15,0,22,9.85,22,22v80
		C148.72,359.87,138.87,369.72,126.72,369.72z"/>
	<path class="st0" d="M299.72,369.72h-13c-12.15,0-22-9.85-22-22v-80c0-12.15,9.85-22,22-22h13c12.15,0,22,9.85,22,22v80
		C321.72,359.87,311.87,369.72,299.72,369.72z"/>
</g>
</svg>
