<?xml version="1.0" encoding="utf-8"?>
<!-- Generator: Adobe Illustrator 24.1.1, SVG Export Plug-In . SVG Version: 6.00 Build 0)  -->
<svg version="1.1"
	 id="svg8" inkscape:version="1.0 (4035a4fb49, 2020-05-01)" sodipodi:docname="Orbytes2.svg" xmlns:cc="http://creativecommons.org/ns#" xmlns:dc="http://purl.org/dc/elements/1.1/" xmlns:inkscape="http://www.inkscape.org/namespaces/inkscape" xmlns:rdf="http://www.w3.org/1999/02/22-rdf-syntax-ns#" xmlns:sodipodi="http://sodipodi.sourceforge.net/DTD/sodipodi-0.dtd" xmlns:svg="http://www.w3.org/2000/svg"
	 xmlns="http://www.w3.org/2000/svg" xmlns:xlink="http://www.w3.org/1999/xlink" x="0px" y="0px" viewBox="0 0 335.8 119.1"
	 style="enable-background:new 0 0 335.8 119.1;" xml:space="preserve">
<style type="text/css">
	.st0{fill:#000080;}
	.st1{fill:#00FFFF;}
	.st2{fill:none;}
	.st3{fill:#99FFBB;}
	.st4{fill:#FFEE99;}
	.st5{fill:#4AFF86;}
	.st6{fill:#F7F7F7;}
	.st7{font-family:'Nasalization';}
	.st8{font-size:64.0001px;}
</style>
<sodipodi:namedview  bordercolor="#666666" borderopacity="1.0" id="base" inkscape:current-layer="layer1" inkscape:cx="195.67696" inkscape:cy="508.90427" inkscape:document-rotation="0" inkscape:document-units="mm" inkscape:guide-bbox="true" inkscape:pageopacity="0.0" inkscape:pageshadow="2" inkscape:window-height="1017" inkscape:window-maximized="1" inkscape:window-width="1920" inkscape:window-x="-8" inkscape:window-y="-8" inkscape:zoom="0.70710678" pagecolor="#ffffff" showgrid="false" showguides="true">
	<sodipodi:guide  id="guide831" inkscape:locked="false" orientation="0,1" position="128.88988,151.56846"></sodipodi:guide>
	<sodipodi:guide  id="guide833" inkscape:locked="false" orientation="1,0" position="101.29762,85.044645"></sodipodi:guide>
</sodipodi:namedview>
<g id="layer1" inkscape:groupmode="layer" inkscape:label="Layer 1">
	<path id="path835" inkscape:connector-curvature="0" class="st0" d="M30.4,27.7C12.9,45,11.9,74,28.2,92.6c1.4,1.6,2.9,3,4.4,4.3
		l0.7-0.3c9.9-4.4,22.8-13.9,34.9-25.8c12-11.9,21.9-24.9,26.7-35l0.4-0.8c-1.1-1.8-2.4-3.4-3.7-5C75.3,11.5,47.9,10.4,30.4,27.7z
		 M96.3,39.6C91,49.8,81.6,61.9,70.2,73.1l0,0C58.9,84.3,46.9,93.3,36.8,98.3c0.4,0.3,0.8,0.6,1.2,0.8c1.2,0.8,2.4,1.5,3.7,2.1
		c0.1,0,0.1,0,0.2,0.1c10-6.8,20.6-15.7,30.7-25.6c10.1-9.9,19.1-20.5,26.3-30.6c-0.4-1-0.8-2.1-1.2-3c0,0,0,0,0,0
		C97.2,41.2,96.7,40.4,96.3,39.6L96.3,39.6z M101,47.1C93.8,57.3,84.6,68,74.5,78l0,0l0,0c-10.1,10-20.8,18.9-30.9,25.8
		c15.6,6.7,33.5,3.3,45.8-8.9C101.7,82.7,106.2,64.1,101,47.1L101,47.1z"/>
	<path id="path859" inkscape:connector-curvature="0" class="st1" d="M96.3,36.5c0.2,0.3,0.4,0.6,0.6,0.9c0.8,1.3,1.4,2.7,2.1,4
		c0.6,1.3,1.1,2.6,1.6,4C114,26.1,119,10.7,113.7,4.7c-5.5-6.2-21.3-1.4-41.4,12.7c0.8,0.2,1.6,0.5,2.4,0.8c1.4,0.5,2.7,1.1,4,1.8
		c0.9,0.5,1.8,1,2.6,1.5c8.2-3.9,14.2-4.4,16.8-1.4C100.6,22.9,100,28.7,96.3,36.5L96.3,36.5z"/>
	<path id="path857" inkscape:connector-curvature="0" class="st1" d="M33.9,98c1.1,0.9,2.2,1.7,3.3,2.4c1.2,0.8,2.5,1.5,3.8,2.2
		c0.3,0.1,0.6,0.3,0.9,0.4c10.3-7,21.2-16,31.5-26.2c10.3-10.2,19.7-21.1,27-31.5c-0.5-1.3-1-2.7-1.6-4c-0.6-1.4-1.3-2.7-2.1-4
		c-0.2-0.3-0.4-0.6-0.6-0.9C91.3,46.9,81.4,60,69.2,72C57.1,83.9,44.1,93.5,33.9,98L33.9,98z"/>
	<path id="circle841" inkscape:connector-curvature="0" class="st2" d="M91.6,30c16.3,18.6,15.3,47.6-2.2,64.9s-44.9,16.2-61.2-2.3
		S12.9,45,30.4,27.7S75.3,11.5,91.6,30z"/>
	<polygon id="circle846" class="st2" points="287.1,412.2 287.1,412.2 287.1,412.2 287.1,412.2 	"/>
	<g id="XMLID_1_">
		<g>
			<path class="st3" d="M94.9,34.5c0.3,0.5,0.3,0.6-1,3.1c-3.7,7.1-8.8,14.4-16.1,22.9C75.7,63,64,74.9,62,76.6
				c-0.4,0.3-1.7,1.5-3,2.6c-8.2,7.1-16.7,12.9-24,16.5c-2.6,1.3-2.1,1.4-5.1-1.5c-7.6-7.5-12.3-18.4-13.1-29.9
				c-0.2-2.4,0-7.3,0.3-9.6c1.2-8.5,4.6-16.5,10-23.3c1.8-2.2,6.7-6.8,9-8.4c7.5-5.1,15.7-7.6,24.5-7.4c5.4,0.1,9.5,1,14.6,3
				c4.7,1.9,9,4.6,12.8,8C89.5,27.8,94.3,33.4,94.9,34.5z"/>
		</g>
		<g>
		</g>
	</g>
	<g id="XMLID_2_">
		<g>
			<path class="st3" d="M101.5,49.3c2,7.8,2,16.3,0,24c-1.6,6.1-5,13-8.8,17.7c-1.4,1.7-3.7,4.2-4.8,5.2c-6.8,6-14.9,9.7-23.6,10.6
				c-2.5,0.3-7.2,0.2-9.8-0.1c-2.6-0.3-6.2-1.3-8.7-2.2l-2.1-0.8l0.5-0.3c4.8-3.1,14.5-10.8,22.2-17.8c4-3.6,15.6-15.2,18.8-18.9
				c5.9-6.6,13-15.5,15.5-19.2l0.3-0.5L101.5,49.3z"/>
		</g>
		<g>
		</g>
	</g>
	<g id="XMLID_3_">
		<g>
			<path class="st4" d="M103.2,41.2c-2.5,3.9-2.6,3.9-3,3.2c-0.1-0.2-0.2-0.3-0.2-0.3v0l-0.6-1.3c0.1,0,0-0.2-0.1-0.7
				c-0.2-0.5-0.4-1-0.5-1.2c0,0-0.1,0-0.1,0l-0.3-0.5c0,0,0,0,0-0.1c0-0.1-0.1-0.3-0.3-0.4c-0.1,0-0.1,0-0.1,0l-0.6-1.5
				c0,0,0,0,0-0.1c0-0.1-0.1-0.3-0.3-0.4c-0.1,0-0.1,0-0.1,0l-0.1-0.5c0,0,0-0.1-0.2-0.5c-0.2-0.5-0.1-1.2,0.7-3
				c1.4-3.3,1.9-5.5,2.1-8.2c0.3-4-0.8-6.1-3.5-7.2c-2.5-1-6.8-0.4-11.8,1.6l-2.8,1.1l-2.3-1.2c-1.3-0.7-3.2-1.5-4.3-2
				c-2.3-0.9-2.4-0.7,0.9-2.9c15.8-10.5,29-15,35.4-12.2c1.9,0.8,3.5,2.7,4.1,4.9c0.5,1.8,0.4,5.4-0.2,8.3
				C113.7,22.5,109.2,31.9,103.2,41.2z"/>
			<path class="st4" d="M44.8,100.9c-2.4,1.7-3,2-3.5,1.8c-0.3-0.1-0.4-0.1-0.4-0.1l-0.5-0.2c0.1,0,0.1,0,0.1-0.1
				c0-0.1-0.2-0.3-0.5-0.4c-0.3-0.1-0.4-0.1-0.4,0l-1.1-0.6c0,0,0,0,0-0.1c0-0.1-0.1-0.3-0.3-0.4c-0.1-0.1-0.2-0.1-0.2,0l-1.2-0.6
				c0,0,0,0,0-0.1c0-0.1-0.1-0.3-0.3-0.4c-0.1-0.1-0.2-0.1-0.2,0l-0.5-0.2c0,0,0,0,0-0.1c0-0.1-0.1-0.3-0.3-0.4
				c-0.1-0.1-0.1-0.1-0.1,0l-0.5-0.2c0,0,0,0,0-0.1c-0.1-0.2-0.3-0.4-0.4-0.5c-0.1,0-0.1,0-0.1,0l-1.4,0c0.1-0.1,0.2-0.1,0.3-0.2
				c0.1-0.1,0.3-0.2,0.4-0.1c0.1,0.1,0.3,0.1,0.4-0.1c0.1-0.1,1.8-1,3.6-2c9.1-4.8,18.5-11.9,29-21.9c12.9-12.3,23.3-25.4,28.6-36
				l0.8-1.5l0.4,0.4c0.2,0.2,0.3,0.3,0.3,0.3l0.1,0.5c-0.1,0,0,0.1,0.1,0.3c0.1,0.1,0.2,0.2,0.3,0.2l0.6,1.5c0,0,0,0.1,0.1,0.3
				c0.1,0.1,0.2,0.2,0.3,0.2l0.3,0.5c-0.1,0,0,0.3,0.1,0.7c0.3,0.7,0.5,1.2,0.6,1.2l0.6,1.3v0c0,0,0,0.2,0.1,0.5
				c0.2,0.7,0.1,0.9-1.9,3.6c-5.4,7.3-11.3,14.4-18.9,22.5c-4.7,5-5.9,6.2-10.8,10.8C61.1,88.4,52.7,95.3,44.8,100.9z"/>
			<path class="st4" d="M41.2,102.8c0.4,0.3,0.3,0.3-0.5,0.9c-1.6,1.2-8,5-10.9,6.6c-8.3,4.4-15.6,6.7-20.7,6.4
				c-3-0.2-4.6-0.9-6.1-2.6c-4.5-5.1-1.6-17,8.1-32.8c2.6-4.3,6.1-9.3,6.4-9.3c0.1,0,0.5,1.2,0.9,2.6c0.4,1.4,1,3.4,1.4,4.4
				c0.4,1,0.7,1.9,0.7,2.2c0,0.2-0.3,1.1-0.8,2c-2.7,5.8-3.6,11.5-2.3,14.3c1.2,2.5,3.6,3.6,7.2,3.3c1.6-0.1,7.1-1.6,8.5-2.3l1.4,0
				c0,0.1,0.1,0.2,0.2,0.3c0.2,0.2,0.3,0.3,0.3,0.3l0.5,0.2c0,0,0,0.1,0.1,0.2c0.1,0.1,0.2,0.2,0.3,0.2l0.5,0.2c0,0,0,0.1,0.1,0.2
				c0.1,0.2,0.2,0.2,0.3,0.2l1.2,0.6c0,0,0,0.1,0.2,0.2c0.1,0.2,0.2,0.2,0.3,0.2l1.1,0.6c0,0.1,0.2,0.2,0.5,0.4
				c0.1,0.1,0.2,0.1,0.3,0.1l0.5,0.2C41,102.6,41.1,102.7,41.2,102.8z"/>
		</g>
		<g>
		</g>
	</g>
	<path id="path976" inkscape:connector-curvature="0" class="st5" d="M84.1,65.7C84,65.6,84,65.6,84.1,65.7c0-0.1,0.6-0.7,1-1.2
		c5.1-5.7,9.3-11,13.4-16.5c1-1.4,1.4-1.9,1.6-2.3c0.1-0.2,0.2-0.4,0.2-0.6c0-0.1,0-0.2-0.2-0.7c0-0.1,0-0.1,0-0.1c0,0,0,0,0,0
		c0,0,0,0,0,0c0,0,0.1,0.1,0.1,0.2c0.1,0.1,0.1,0.2,0.2,0.2c0.1,0.1,0.1,0.1,0.1,0.1c0.1,0,0.2,0,0.4-0.3c0.3-0.3,0.6-0.8,1.5-2.1
		c2-3.1,3.4-5.4,4.9-8c0.2-0.4,0.4-0.7,0.4-0.7c0,0,0,0,0,0.1l0,0.1l-0.1,0.1c-0.3,0.6-1.3,2.2-2,3.4c-1.3,2.1-2.4,3.8-3.8,5.9
		c-1,1.5-1.4,2.1-1.4,2.1c0,0,0,0,0,0c0,0-0.8,1.2-2,2.8c-4,5.4-8.4,10.9-13.3,16.5c-0.3,0.3-0.6,0.7-0.7,0.8
		C84.3,65.5,84.2,65.6,84.1,65.7L84.1,65.7L84.1,65.7z M100.4,45.2C100.4,45.2,100.4,45.2,100.4,45.2
		C100.4,45.2,100.4,45.2,100.4,45.2C100.4,45.2,100.4,45.2,100.4,45.2C100.4,45.2,100.4,45.2,100.4,45.2z M100.4,45
		C100.4,45,100.4,45,100.4,45C100.4,45.1,100.4,45.1,100.4,45C100.4,45.1,100.4,45.1,100.4,45C100.4,45.1,100.4,45.1,100.4,45z
		 M100.3,45C100.3,45,100.3,45,100.3,45C100.3,45,100.4,45,100.3,45C100.4,45,100.4,45,100.3,45C100.4,45,100.4,45,100.3,45z
		 M100.3,44.9C100.3,44.9,100.3,44.9,100.3,44.9C100.3,44.9,100.3,44.9,100.3,44.9C100.3,44.9,100.3,44.9,100.3,44.9
		C100.3,44.9,100.3,44.9,100.3,44.9z M100.3,44.8C100.3,44.7,100.3,44.8,100.3,44.8C100.3,44.8,100.3,44.8,100.3,44.8
		C100.3,44.8,100.3,44.8,100.3,44.8C100.3,44.8,100.3,44.8,100.3,44.8z M100.2,44.7C100.2,44.7,100.2,44.7,100.2,44.7
		C100.2,44.7,100.2,44.7,100.2,44.7C100.3,44.7,100.3,44.7,100.2,44.7C100.3,44.7,100.2,44.7,100.2,44.7z M100.2,44.6
		C100.2,44.6,100.2,44.6,100.2,44.6C100.2,44.6,100.2,44.6,100.2,44.6C100.2,44.6,100.2,44.6,100.2,44.6
		C100.2,44.6,100.2,44.6,100.2,44.6z"/>
	<path id="path978" inkscape:connector-curvature="0" class="st5" d="M99.4,42.8c-0.1-0.1-0.6-1.2-0.7-1.7c0-0.1,0-0.1,0-0.1
		c0,0,0,0,0,0c0-0.1,0-0.1,0.1,0c0.1,0.1,0.3,0.4,0.4,0.8c0.1,0.3,0.3,0.8,0.2,0.8c0,0,0,0,0,0C99.4,42.6,99.5,42.7,99.4,42.8
		C99.5,42.8,99.5,42.8,99.4,42.8L99.4,42.8z M99.4,42.5C99.4,42.5,99.4,42.5,99.4,42.5C99.4,42.5,99.4,42.5,99.4,42.5
		C99.4,42.6,99.4,42.6,99.4,42.5C99.4,42.6,99.4,42.5,99.4,42.5z M99,41.6C99,41.6,99,41.6,99,41.6c0,0.1,0,0.1,0,0.1
		C99.1,41.8,99.1,41.7,99,41.6C99,41.7,99,41.6,99,41.6L99,41.6z M98.9,41.3C98.9,41.3,98.9,41.3,98.9,41.3
		C98.9,41.4,98.9,41.4,98.9,41.3C98.9,41.3,98.9,41.3,98.9,41.3L98.9,41.3z M98.8,41.1C98.8,41.1,98.8,41.1,98.8,41.1
		C98.8,41.1,98.8,41.2,98.8,41.1C98.8,41.2,98.8,41.2,98.8,41.1C98.8,41.1,98.8,41.1,98.8,41.1L98.8,41.1z"/>
	<path id="path980" inkscape:connector-curvature="0" class="st5" d="M98.5,40.2C98.4,40.2,98.4,40.2,98.5,40.2
		C98.5,40.2,98.5,40.2,98.5,40.2C98.5,40.2,98.5,40.2,98.5,40.2L98.5,40.2z"/>
	<path id="path982" inkscape:connector-curvature="0" class="st5" d="M0,0"/>
	<path id="path984" inkscape:connector-curvature="0" class="st5" d="M98.5,40.4C98.5,40.4,98.4,40.4,98.5,40.4
		c-0.1,0-0.2-0.1-0.3-0.2C98,40,98,39.9,98.2,40c0.1,0.1,0.2,0.1,0.3,0.2c0.1,0.1,0.1,0.1,0.1,0.2C98.5,40.4,98.5,40.4,98.5,40.4
		L98.5,40.4z M98.4,40.3C98.4,40.3,98.4,40.3,98.4,40.3C98.4,40.4,98.4,40.4,98.4,40.3C98.4,40.4,98.4,40.4,98.4,40.3L98.4,40.3z
		 M98.4,40.2C98.4,40.2,98.4,40.2,98.4,40.2C98.4,40.3,98.4,40.3,98.4,40.2C98.4,40.3,98.4,40.2,98.4,40.2L98.4,40.2z M98.3,40.1
		C98.3,40.1,98.3,40.1,98.3,40.1C98.3,40.1,98.3,40.2,98.3,40.1C98.3,40.1,98.3,40.1,98.3,40.1L98.3,40.1z M98.3,40.1
		C98.3,40.1,98.3,40.1,98.3,40.1C98.3,40.1,98.3,40.1,98.3,40.1C98.3,40.1,98.3,40.1,98.3,40.1L98.3,40.1z"/>
	<path id="path986" inkscape:connector-curvature="0" class="st5" d="M97.4,38.4C97.4,38.4,97.4,38.4,97.4,38.4c0,0.1-0.1,0-0.2-0.2
		C97,38,97,37.9,97.1,38C97.3,38,97.4,38.2,97.4,38.4C97.5,38.4,97.5,38.4,97.4,38.4L97.4,38.4z M97.4,38.3
		C97.4,38.3,97.4,38.3,97.4,38.3C97.4,38.4,97.4,38.4,97.4,38.3C97.4,38.4,97.4,38.3,97.4,38.3L97.4,38.3z M97.4,38.3
		C97.3,38.3,97.3,38.3,97.4,38.3C97.4,38.3,97.4,38.3,97.4,38.3C97.4,38.3,97.4,38.3,97.4,38.3L97.4,38.3z M97.3,38.2
		C97.3,38.2,97.3,38.2,97.3,38.2C97.3,38.2,97.3,38.2,97.3,38.2C97.3,38.2,97.3,38.2,97.3,38.2z M97.3,38.1
		C97.3,38.1,97.3,38.1,97.3,38.1C97.3,38.2,97.3,38.2,97.3,38.1C97.3,38.2,97.3,38.1,97.3,38.1L97.3,38.1z M97.2,38.1
		C97.2,38.1,97.2,38.1,97.2,38.1C97.3,38.1,97.3,38.1,97.2,38.1C97.3,38.1,97.2,38.1,97.2,38.1z"/>
	<path id="path988" inkscape:connector-curvature="0" class="st5" d="M79.7,60.7c0,0,0-0.1,0.1-0.1c1-1.2,1.8-2.2,2.6-3.1
		c7.6-9.3,13-18.1,15.6-25.2c0.6-1.5,1-3.1,1.3-4.3c0-0.1,0-0.2,0.1-0.2c0,0-0.2,1.1-0.3,1.7c-0.3,1.3-0.7,2.5-1.5,4.4
		c-0.1,0.4-0.3,0.8-0.4,0.9c-0.4,0.9-0.5,1.5-0.4,1.9c0,0.1,0.1,0.2,0.1,0.4c0.1,0.1,0.1,0.3,0.1,0.3c0,0-0.2-0.1-0.4-0.4
		c-0.1-0.1-0.3-0.3-0.3-0.3c0,0-0.1,0.3-0.3,0.6c-0.4,0.9-0.9,1.8-1.2,2.3c-3.3,6.2-8.3,13.3-14.6,20.6
		C79.8,60.7,79.7,60.7,79.7,60.7L79.7,60.7z M96.8,37.4C96.8,37.4,96.8,37.4,96.8,37.4C96.9,37.4,96.9,37.4,96.8,37.4
		C96.9,37.4,96.9,37.4,96.8,37.4L96.8,37.4z M96.8,37.3C96.8,37.3,96.8,37.3,96.8,37.3C96.8,37.3,96.8,37.3,96.8,37.3
		C96.8,37.3,96.8,37.3,96.8,37.3z M96.7,37.2C96.7,37.2,96.7,37.2,96.7,37.2C96.8,37.2,96.8,37.2,96.7,37.2
		C96.8,37.2,96.7,37.2,96.7,37.2L96.7,37.2z M96.7,37.1C96.7,37.1,96.7,37.1,96.7,37.1C96.7,37.1,96.7,37.1,96.7,37.1
		C96.7,37.1,96.7,37.1,96.7,37.1L96.7,37.1z M96.6,37C96.6,37,96.6,37,96.6,37C96.6,37,96.6,37,96.6,37C96.6,37,96.6,37,96.6,37z
		 M96.6,36.9C96.5,36.9,96.5,36.9,96.6,36.9C96.6,37,96.6,37,96.6,36.9C96.6,36.9,96.6,36.9,96.6,36.9L96.6,36.9z M96.5,36.8
		C96.5,36.8,96.5,36.8,96.5,36.8C96.5,36.9,96.5,36.9,96.5,36.8C96.5,36.8,96.5,36.8,96.5,36.8L96.5,36.8z M96.4,36.7
		C96.4,36.7,96.4,36.7,96.4,36.7C96.5,36.8,96.5,36.8,96.4,36.7C96.5,36.7,96.4,36.7,96.4,36.7L96.4,36.7z M96.4,36.6
		C96.4,36.6,96.4,36.6,96.4,36.6C96.4,36.7,96.4,36.7,96.4,36.6C96.4,36.6,96.4,36.6,96.4,36.6L96.4,36.6z M96.3,36.5
		C96.3,36.5,96.3,36.5,96.3,36.5C96.3,36.6,96.3,36.6,96.3,36.5C96.3,36.5,96.3,36.5,96.3,36.5L96.3,36.5z"/>
	<path id="path992" inkscape:connector-curvature="0" class="st5" d="M99.5,42.8C99.4,42.8,99.4,42.8,99.5,42.8
		c-0.2-0.2-0.3-0.5-0.4-0.8l0,0l0,0l0,0l0,0c0.1,0.3,0.2,0.5,0.3,0.7C99.4,42.7,99.4,42.7,99.5,42.8C99.4,42.8,99.4,42.8,99.5,42.8
		C99.4,42.8,99.4,42.8,99.5,42.8C99.5,42.8,99.5,42.8,99.5,42.8c0-0.1,0-0.1,0-0.1c0,0,0,0,0,0c0,0,0,0,0,0c0,0,0,0,0,0c0,0,0,0,0,0
		c0-0.1-0.2-0.6-0.2-0.8c0,0,0,0,0,0c0,0,0,0,0,0c0,0,0,0,0,0c0,0,0,0,0,0c0.1,0.2,0.1,0.3,0.2,0.5c0,0.1,0.1,0.3,0.1,0.4
		c0,0,0,0,0,0c0,0,0,0,0,0C99.5,42.7,99.5,42.7,99.5,42.8C99.5,42.7,99.5,42.7,99.5,42.8C99.5,42.7,99.5,42.7,99.5,42.8
		C99.5,42.8,99.5,42.8,99.5,42.8L99.5,42.8z M99.5,42.7C99.5,42.7,99.5,42.7,99.5,42.7C99.5,42.7,99.5,42.7,99.5,42.7
		C99.5,42.7,99.5,42.7,99.5,42.7C99.5,42.7,99.5,42.7,99.5,42.7z M99.5,42.6C99.5,42.6,99.5,42.6,99.5,42.6
		C99.5,42.6,99.5,42.6,99.5,42.6C99.5,42.7,99.5,42.7,99.5,42.6C99.5,42.7,99.5,42.6,99.5,42.6z M99.4,42.6
		C99.4,42.6,99.4,42.6,99.4,42.6C99.4,42.6,99.4,42.6,99.4,42.6C99.4,42.6,99.4,42.6,99.4,42.6C99.4,42.6,99.4,42.6,99.4,42.6z M0,0
		"/>
	<path id="path994" inkscape:connector-curvature="0" class="st5" d="M99.4,42.6C99.4,42.6,99.4,42.6,99.4,42.6
		C99.4,42.5,99.4,42.5,99.4,42.6c0-0.1,0-0.1,0-0.1c0,0,0,0,0,0C99.4,42.5,99.4,42.5,99.4,42.6C99.4,42.5,99.4,42.5,99.4,42.6
		C99.4,42.6,99.4,42.6,99.4,42.6C99.4,42.6,99.4,42.6,99.4,42.6C99.4,42.6,99.4,42.6,99.4,42.6C99.4,42.6,99.4,42.6,99.4,42.6
		C99.4,42.6,99.4,42.6,99.4,42.6C99.4,42.6,99.4,42.6,99.4,42.6L99.4,42.6z M99.4,42.5C99.4,42.5,99.4,42.5,99.4,42.5
		C99.4,42.5,99.4,42.5,99.4,42.5C99.4,42.5,99.4,42.5,99.4,42.5C99.4,42.5,99.4,42.5,99.4,42.5z M99.4,42.5
		C99.4,42.5,99.4,42.5,99.4,42.5C99.4,42.5,99.4,42.5,99.4,42.5C99.4,42.5,99.4,42.5,99.4,42.5C99.4,42.5,99.4,42.5,99.4,42.5z"/>
	<path id="path996" inkscape:connector-curvature="0" class="st5" d="M98.5,40.4C98.5,40.4,98.5,40.4,98.5,40.4
		C98.5,40.4,98.5,40.4,98.5,40.4C98.5,40.4,98.5,40.4,98.5,40.4C98.5,40.4,98.5,40.4,98.5,40.4c-0.1,0-0.2-0.1-0.3-0.3
		C98.1,40.1,98,40,98,40c0,0,0,0,0.1,0c0.1,0,0.1,0.1,0.2,0.1c0,0,0.1,0.1,0.1,0.1l0,0l0,0c0,0,0,0,0,0c0,0,0,0,0,0l0,0l0,0
		C98.5,40.3,98.5,40.4,98.5,40.4C98.5,40.4,98.5,40.4,98.5,40.4L98.5,40.4z M98.5,40.4C98.5,40.4,98.5,40.3,98.5,40.4
		c0-0.1,0-0.2-0.1-0.2c0,0-0.1-0.1-0.1-0.1c0,0,0,0-0.1-0.1c0,0,0,0,0,0c0,0,0,0,0,0c0,0-0.1,0-0.1-0.1c0,0,0,0-0.1,0c0,0,0,0,0,0.1
		c0,0.1,0.1,0.2,0.2,0.2C98.3,40.3,98.4,40.4,98.5,40.4C98.4,40.4,98.4,40.4,98.5,40.4C98.4,40.4,98.4,40.4,98.5,40.4
		C98.4,40.4,98.4,40.4,98.5,40.4C98.4,40.4,98.5,40.4,98.5,40.4C98.5,40.4,98.5,40.4,98.5,40.4C98.5,40.4,98.5,40.4,98.5,40.4
		L98.5,40.4z M98.5,40.4C98.5,40.4,98.5,40.4,98.5,40.4C98.5,40.4,98.5,40.4,98.5,40.4C98.5,40.4,98.5,40.4,98.5,40.4L98.5,40.4z
		 M98.5,40.4C98.5,40.4,98.5,40.4,98.5,40.4C98.5,40.4,98.5,40.4,98.5,40.4C98.5,40.4,98.5,40.4,98.5,40.4L98.5,40.4z M98.4,40.4
		C98.4,40.4,98.4,40.4,98.4,40.4C98.5,40.4,98.5,40.4,98.4,40.4C98.5,40.4,98.5,40.4,98.4,40.4L98.4,40.4z M98.3,40
		C98.3,40,98.3,40,98.3,40C98.3,40,98.3,40,98.3,40C98.3,40,98.3,40,98.3,40L98.3,40z M98.3,40C98.3,40,98.3,40,98.3,40
		C98.3,40,98.3,40,98.3,40C98.3,40,98.3,40,98.3,40L98.3,40z M98.3,40C98.3,40,98.3,40,98.3,40C98.3,40,98.3,40,98.3,40
		C98.3,40,98.3,40,98.3,40L98.3,40z"/>
	<path id="path998" inkscape:connector-curvature="0" class="st5" d="M98.4,40.4C98.4,40.4,98.4,40.4,98.4,40.4
		C98.4,40.4,98.4,40.3,98.4,40.4C98.4,40.3,98.4,40.3,98.4,40.4C98.4,40.4,98.4,40.4,98.4,40.4L98.4,40.4z M98.4,40.4
		C98.4,40.4,98.4,40.4,98.4,40.4C98.4,40.4,98.4,40.4,98.4,40.4C98.4,40.4,98.4,40.4,98.4,40.4L98.4,40.4z M98.4,40.4
		C98.4,40.4,98.4,40.4,98.4,40.4C98.4,40.4,98.4,40.4,98.4,40.4C98.4,40.4,98.4,40.4,98.4,40.4L98.4,40.4z M98.4,40.4
		C98.4,40.4,98.4,40.4,98.4,40.4C98.4,40.4,98.4,40.4,98.4,40.4C98.4,40.4,98.4,40.4,98.4,40.4L98.4,40.4z M98.4,40.3
		C98.4,40.3,98.4,40.3,98.4,40.3C98.4,40.3,98.4,40.3,98.4,40.3C98.4,40.3,98.4,40.3,98.4,40.3L98.4,40.3z"/>
	<path id="path1000" inkscape:connector-curvature="0" class="st5" d="M98.4,40.3C98.4,40.3,98.4,40.3,98.4,40.3
		C98.4,40.2,98.4,40.2,98.4,40.3C98.4,40.2,98.4,40.2,98.4,40.3C98.4,40.3,98.4,40.3,98.4,40.3C98.4,40.3,98.4,40.3,98.4,40.3
		L98.4,40.3z M98.4,40.3C98.4,40.3,98.4,40.3,98.4,40.3C98.4,40.3,98.4,40.3,98.4,40.3C98.4,40.3,98.4,40.3,98.4,40.3L98.4,40.3z
		 M98.4,40.2C98.4,40.2,98.4,40.2,98.4,40.2C98.4,40.2,98.4,40.2,98.4,40.2C98.4,40.2,98.4,40.2,98.4,40.2L98.4,40.2z M98.4,40.2
		C98.4,40.2,98.4,40.2,98.4,40.2C98.4,40.2,98.4,40.2,98.4,40.2C98.4,40.2,98.4,40.2,98.4,40.2L98.4,40.2z M98.4,40.2
		C98.4,40.2,98.4,40.2,98.4,40.2C98.4,40.2,98.4,40.2,98.4,40.2C98.4,40.2,98.4,40.2,98.4,40.2L98.4,40.2z"/>
	<path id="path1002" inkscape:connector-curvature="0" class="st5" d="M98.3,40.2C98.3,40.2,98.3,40.1,98.3,40.2
		C98.3,40.1,98.3,40.1,98.3,40.2C98.3,40.1,98.3,40.1,98.3,40.2C98.3,40.1,98.3,40.1,98.3,40.2C98.3,40.1,98.3,40.1,98.3,40.2
		C98.3,40.1,98.3,40.1,98.3,40.2C98.3,40.1,98.3,40.1,98.3,40.2C98.3,40.1,98.3,40.1,98.3,40.2C98.3,40.2,98.3,40.2,98.3,40.2
		L98.3,40.2z M98.3,40.1C98.3,40.1,98.3,40.1,98.3,40.1C98.3,40.1,98.3,40.1,98.3,40.1C98.3,40.1,98.3,40.1,98.3,40.1L98.3,40.1z
		 M98.3,40.1C98.3,40.1,98.3,40.1,98.3,40.1C98.3,40.1,98.3,40.1,98.3,40.1C98.3,40.1,98.3,40.1,98.3,40.1L98.3,40.1z M98.3,40.1
		C98.3,40.1,98.3,40.1,98.3,40.1C98.3,40.1,98.3,40.1,98.3,40.1C98.3,40.1,98.3,40.1,98.3,40.1L98.3,40.1z"/>
	<path id="path1004" inkscape:connector-curvature="0" class="st5" d="M98.3,40.1C98.3,40.1,98.3,40.1,98.3,40.1
		C98.3,40.1,98.3,40.1,98.3,40.1C98.3,40.1,98.3,40.1,98.3,40.1C98.3,40.1,98.3,40.1,98.3,40.1L98.3,40.1z M98.3,40.1
		C98.3,40.1,98.3,40.1,98.3,40.1C98.3,40.1,98.3,40.1,98.3,40.1C98.3,40.1,98.3,40.1,98.3,40.1L98.3,40.1z M98.3,40.1
		C98.3,40.1,98.3,40.1,98.3,40.1C98.3,40.1,98.3,40.1,98.3,40.1C98.3,40.1,98.3,40.1,98.3,40.1L98.3,40.1z M98.3,40.1
		C98.3,40.1,98.3,40.1,98.3,40.1C98.3,40.1,98.3,40.1,98.3,40.1C98.3,40.1,98.3,40.1,98.3,40.1L98.3,40.1z M98.3,40.1
		C98.3,40.1,98.3,40.1,98.3,40.1C98.3,40.1,98.3,40.1,98.3,40.1C98.3,40.1,98.3,40.1,98.3,40.1L98.3,40.1z"/>
	<path id="path1006" inkscape:connector-curvature="0" class="st5" d="M99.2,41.8c-0.1-0.3-0.3-0.6-0.4-0.7c0,0,0-0.1-0.1-0.1
		c0,0,0,0,0,0c0,0,0,0,0,0.1c0,0,0,0,0,0c0,0,0,0,0,0c0,0,0,0,0,0c0,0.1,0,0.2,0.1,0.3c0.1,0.2,0.1,0.4,0.2,0.6l0,0l0,0c0,0,0,0,0,0
		c0,0-0.1-0.1-0.1-0.2c-0.1-0.2-0.1-0.4-0.2-0.5c0-0.1-0.1-0.2,0-0.3c0,0,0,0,0,0c0,0,0,0,0,0c0,0,0,0,0,0c0,0,0,0,0,0
		c0,0,0.1,0.1,0.2,0.2C99,41.3,99.1,41.5,99.2,41.8C99.2,41.7,99.2,41.8,99.2,41.8C99.2,41.8,99.2,41.8,99.2,41.8L99.2,41.8
		L99.2,41.8z M98.7,41C98.7,41,98.7,41,98.7,41C98.7,41,98.7,41,98.7,41C98.7,41,98.7,41,98.7,41L98.7,41z M98.7,41
		C98.7,41,98.7,41,98.7,41C98.7,41,98.7,41,98.7,41C98.7,41,98.7,41,98.7,41L98.7,41z M98.7,41C98.7,41,98.7,41,98.7,41
		C98.7,41,98.7,41,98.7,41C98.7,41,98.7,41,98.7,41L98.7,41z M98.7,41C98.7,41,98.7,41,98.7,41C98.7,41,98.7,41,98.7,41
		C98.7,41,98.7,41,98.7,41L98.7,41z M98.7,41C98.7,41,98.7,41,98.7,41C98.7,41,98.7,41,98.7,41C98.7,41,98.7,41,98.7,41L98.7,41z
		 M98.7,41C98.7,41,98.7,41,98.7,41C98.7,41,98.7,41,98.7,41C98.7,41,98.7,41,98.7,41C98.7,41,98.7,41,98.7,41z M98.7,41
		C98.7,41,98.7,41,98.7,41C98.7,41,98.7,41,98.7,41C98.7,41,98.7,41,98.7,41L98.7,41z M98.7,40.9C98.7,40.9,98.7,40.9,98.7,40.9
		C98.7,40.9,98.7,40.9,98.7,40.9C98.7,40.9,98.7,40.9,98.7,40.9L98.7,40.9z"/>
	<path id="path1008" inkscape:connector-curvature="0" class="st5" d="M98.8,41.2C98.8,41.2,98.8,41.2,98.8,41.2
		C98.8,41.1,98.8,41.1,98.8,41.2C98.8,41.1,98.8,41.1,98.8,41.2C98.8,41.1,98.8,41.1,98.8,41.2C98.8,41.2,98.8,41.2,98.8,41.2
		C98.8,41.2,98.8,41.2,98.8,41.2L98.8,41.2z M98.8,41.2C98.8,41.2,98.8,41.2,98.8,41.2C98.8,41.2,98.8,41.2,98.8,41.2
		C98.8,41.2,98.8,41.2,98.8,41.2L98.8,41.2z M98.8,41.2C98.8,41.2,98.8,41.2,98.8,41.2C98.8,41.2,98.8,41.2,98.8,41.2
		C98.8,41.2,98.8,41.2,98.8,41.2L98.8,41.2z M98.8,41.2C98.8,41.2,98.8,41.2,98.8,41.2C98.8,41.2,98.8,41.2,98.8,41.2
		C98.8,41.2,98.8,41.2,98.8,41.2C98.8,41.2,98.8,41.2,98.8,41.2z M98.8,41.2C98.8,41.2,98.8,41.2,98.8,41.2
		C98.8,41.2,98.8,41.2,98.8,41.2C98.8,41.2,98.8,41.2,98.8,41.2L98.8,41.2z M98.8,41.1C98.8,41.1,98.8,41.1,98.8,41.1
		C98.8,41.1,98.8,41.1,98.8,41.1C98.8,41.1,98.8,41.1,98.8,41.1C98.8,41.1,98.8,41.1,98.8,41.1z M98.8,41.1
		C98.8,41.1,98.8,41.1,98.8,41.1C98.8,41.1,98.8,41.1,98.8,41.1C98.8,41.1,98.8,41.1,98.8,41.1L98.8,41.1z M98.8,41.1
		C98.8,41.1,98.8,41.1,98.8,41.1C98.8,41.1,98.8,41.1,98.8,41.1C98.8,41.1,98.8,41.1,98.8,41.1C98.8,41.1,98.8,41.1,98.8,41.1z"/>
	<path id="path1010" inkscape:connector-curvature="0" class="st5" d="M98.9,41.4C98.9,41.4,98.9,41.4,98.9,41.4
		C98.9,41.3,98.9,41.3,98.9,41.4C98.9,41.4,98.9,41.3,98.9,41.4C98.9,41.3,98.9,41.3,98.9,41.4C98.9,41.3,98.9,41.3,98.9,41.4
		C98.9,41.3,98.9,41.3,98.9,41.4C98.9,41.3,98.9,41.3,98.9,41.4C98.9,41.3,98.9,41.3,98.9,41.4C98.9,41.3,98.9,41.3,98.9,41.4
		C98.9,41.3,98.9,41.4,98.9,41.4L98.9,41.4z M98.9,41.3C98.9,41.3,98.9,41.3,98.9,41.3C98.9,41.3,98.9,41.3,98.9,41.3
		C98.9,41.3,98.9,41.3,98.9,41.3C98.9,41.3,98.9,41.3,98.9,41.3z"/>
	<path id="path1012" inkscape:connector-curvature="0" class="st5" d="M99.1,41.8c0,0,0-0.1-0.1-0.1c0,0,0,0,0,0c0,0,0,0,0,0
		C99,41.6,99,41.6,99.1,41.8C99.1,41.7,99.1,41.8,99.1,41.8C99.1,41.8,99.1,41.8,99.1,41.8C99.1,41.8,99.1,41.8,99.1,41.8L99.1,41.8
		z M99.1,41.7C99.1,41.7,99.1,41.7,99.1,41.7C99.1,41.7,99.1,41.7,99.1,41.7C99.1,41.7,99.1,41.7,99.1,41.7
		C99.1,41.7,99.1,41.7,99.1,41.7z M99,41.7C99,41.7,99,41.7,99,41.7C99,41.7,99,41.7,99,41.7C99,41.7,99,41.7,99,41.7
		C99,41.7,99,41.7,99,41.7z M99,41.7C99,41.7,99,41.7,99,41.7C99,41.7,99,41.7,99,41.7C99,41.7,99,41.7,99,41.7
		C99,41.7,99,41.7,99,41.7z M99,41.6C99,41.6,99,41.6,99,41.6C99,41.6,99,41.6,99,41.6C99,41.6,99,41.6,99,41.6
		C99,41.6,99,41.6,99,41.6z"/>
	<path id="path1014" inkscape:connector-curvature="0" class="st5" d="M111.4,26.6L111.4,26.6l0-0.1c1.2-2.5,2.1-4.9,2.8-7
		c0.1-0.4,0.3-1,0.4-1.3l0,0l0.1-0.1l0.1-0.1l0,0.1c0,0.1-0.1,0.4-0.2,0.6c-0.6,2.1-1.5,4.4-2.6,6.9
		C111.9,25.8,111.6,26.4,111.4,26.6L111.4,26.6L111.4,26.6z"/>
	<path id="path1016" inkscape:connector-curvature="0" class="st5" d="M115,16.6L115,16.6l0-0.2c0.2-0.7,0.3-1.5,0.4-2.3
		c0.2-1.4,0.2-2.9,0.1-4.2c0-0.4-0.1-0.7-0.1-0.9l0-0.1l0.1-0.1l0.1-0.1l0,0c0,0,0,0.1,0,0.1c0.2,1.3,0.2,2.7,0,4.3
		c-0.1,0.9-0.2,1.8-0.5,2.8C115.2,16.3,115.1,16.7,115,16.6C115.1,16.7,115.1,16.7,115,16.6L115,16.6z"/>
	<path id="path1018" inkscape:connector-curvature="0" class="st5" d="M115.5,8.9c0,0,0-0.1,0-0.2c-0.1-0.5-0.2-0.8-0.3-1.3
		c-0.3-0.9-0.9-1.9-1.5-2.6l-0.1-0.1l0.1-0.1l0.1-0.1l0.1,0.1c0.9,1,1.5,2.4,1.8,4l0,0.2L115.5,8.9C115.5,8.9,115.5,9,115.5,8.9
		L115.5,8.9z"/>
	<path id="path1020" inkscape:connector-curvature="0" class="st5" d="M113.3,4.6c-0.8-0.8-1.5-1.3-2.5-1.7
		c-0.7-0.3-1.5-0.5-2.4-0.6c-0.4-0.1-0.8-0.1-1.3-0.1c-0.6,0-1.1,0-1.7,0l-0.3,0l0.1-0.1l0.1-0.1l0.3,0c0.5,0,0.8,0,1.4,0
		c0.6,0,0.9,0,1.3,0.1c1.6,0.2,2.8,0.7,3.9,1.4c0.4,0.3,0.7,0.6,1.1,0.9l0.1,0.1l-0.1,0.1l-0.1,0.1L113.3,4.6z"/>
	<path id="path1022" inkscape:connector-curvature="0" class="st5" d="M105.1,2.3c-0.6,0-1.4,0.2-2.2,0.3
		c-4.5,0.8-10.1,2.9-16.3,6.1c-0.4,0.2-1.3,0.7-1.4,0.7l0,0l0,0c0,0,0,0,0-0.1c0,0,0.2-0.1,0.4-0.2c5.5-3,10.4-5,14.7-6.2
		c1.4-0.4,2.8-0.6,4.1-0.8c0.4,0,1-0.1,1.1-0.1l0.1,0l-0.1,0.1l-0.1,0.1L105.1,2.3L105.1,2.3z"/>
	<path id="path1024" inkscape:connector-curvature="0" class="st5" d="M0,0"/>
	<path id="path1026" inkscape:connector-curvature="0" class="st5" d="M84,10.1c-1.2,0.7-2.5,1.4-3.7,2.2c-0.2,0.1-0.4,0.2-0.4,0.2
		c0,0,0,0,0,0c0,0,0,0,0,0c0,0,0,0,0.1-0.1c1.3-0.8,2.6-1.6,3.9-2.3C84,10,84,10,84,10c0,0,0,0,0,0l0,0L84,10.1z"/>
	<path id="path1028" inkscape:connector-curvature="0" class="st5" d="M85.1,9.5c-0.2,0.1-0.7,0.4-0.9,0.5c0,0-0.1,0-0.1,0l0,0l0,0
		c0,0,0,0,0,0c0,0,1.1-0.6,1.2-0.6c0,0,0,0,0,0C85.1,9.3,85.1,9.3,85.1,9.5C85.2,9.4,85.2,9.4,85.1,9.5C85.2,9.4,85.2,9.5,85.1,9.5
		L85.1,9.5z"/>
	<path id="path1030" inkscape:connector-curvature="0" class="st5" d="M86,9c-0.2,0.1-0.6,0.3-0.7,0.4c0,0-0.1,0-0.1,0
		c0,0-0.1-0.1-0.1-0.1c0,0,0,0,0,0c0,0,0.4-0.2,0.7-0.4L86,8.9L86,9C86,9,86,9,86,9C86,9,86,9,86,9L86,9z"/>
	<path id="path1032" inkscape:connector-curvature="0" class="st5" d="M85.9,9c-0.4,0.2-0.7,0.4-0.7,0.4l0,0l0,0c0,0,0,0,0-0.1
		c0,0,0,0,0,0c0,0,0.6-0.3,0.8-0.4l0,0L85.9,9C86,9,86,9,85.9,9C86,9,86,9,85.9,9L85.9,9z"/>
	<path id="path1034" inkscape:connector-curvature="0" class="st5" d="M86,9c-0.1,0.1-0.3,0.2-0.5,0.3c-0.2,0.1-0.3,0.1-0.3,0.2l0,0
		l0,0c0,0,0,0,0-0.1c0,0,0,0,0.1,0c0.1-0.1,0.5-0.3,0.7-0.4L86,8.9L86,9C86,9,86,9,86,9C86,9,86,9,86,9L86,9z"/>
	<text transform="matrix(1 0 0 1 105.1641 103.7452)" class="st6 st7 st8">rbytes</text>
</g>
</svg>
