<?xml version="1.0" encoding="UTF-8" standalone="no"?>
<svg
   xmlns:dc="http://purl.org/dc/elements/1.1/"
   xmlns:cc="http://creativecommons.org/ns#"
   xmlns:rdf="http://www.w3.org/1999/02/22-rdf-syntax-ns#"
   xmlns:svg="http://www.w3.org/2000/svg"
   xmlns="http://www.w3.org/2000/svg"
   xmlns:sodipodi="http://sodipodi.sourceforge.net/DTD/sodipodi-0.dtd"
   xmlns:inkscape="http://www.inkscape.org/namespaces/inkscape"
   sodipodi:docname="Orbytes2.svg"
   inkscape:version="1.0 (4035a4fb49, 2020-05-01)"
   id="svg8"
   version="1.1"
   viewBox="0 0 114 42"
   height="42mm"
   width="114mm">
  <defs
     id="defs2" />
  <sodipodi:namedview
     inkscape:document-rotation="0"
     inkscape:window-maximized="1"
     inkscape:window-y="-8"
     inkscape:window-x="-8"
     inkscape:window-height="1017"
     inkscape:window-width="1920"
     inkscape:guide-bbox="true"
     showguides="true"
     showgrid="false"
     inkscape:current-layer="layer1"
     inkscape:document-units="mm"
     inkscape:cy="508.90427"
     inkscape:cx="195.67696"
     inkscape:zoom="0.70710678"
     inkscape:pageshadow="2"
     inkscape:pageopacity="0.0"
     borderopacity="1.0"
     bordercolor="#666666"
     pagecolor="#ffffff"
     id="base">
    <sodipodi:guide
       inkscape:locked="false"
       id="guide831"
       orientation="0,1"
       position="128.88988,151.56846" />
    <sodipodi:guide
       inkscape:locked="false"
       id="guide833"
       orientation="1,0"
       position="101.29762,85.044645" />
  </sodipodi:namedview>
  <metadata
     id="metadata5">
    <rdf:RDF>
      <cc:Work
         rdf:about="">
        <dc:format>image/svg+xml</dc:format>
        <dc:type
           rdf:resource="http://purl.org/dc/dcmitype/StillImage" />
        <dc:title></dc:title>
      </cc:Work>
    </rdf:RDF>
  </metadata>
  <g
     id="layer1"
     inkscape:groupmode="layer"
     inkscape:label="Layer 1">
    <path
       inkscape:connector-curvature="0"
       id="path835"
       d="m 10.718845,9.768681 a 15.277114,16.199998 0 0 0 -0.7749341,22.89549 15.277114,16.199998 0 0 0 1.5648311,1.52695 l 0.255433,-0.11286 c 3.494511,-1.54308 8.058681,-4.90067 12.308771,-9.09488 4.248464,-4.196109 7.730419,-8.782193 9.427757,-12.364683 L 33.628426,12.34931 A 15.277114,16.199998 0 0 0 32.309907,10.590291 15.277114,16.199998 0 0 0 10.718845,9.768681 Z m 23.260103,4.191386 c -1.892343,3.613116 -5.205597,7.87033 -9.205719,11.821184 l -1.3e-4,1.3e-4 c -3.998922,3.94633 -8.238538,7.14685 -11.773458,8.89425 0.136769,0.0965 0.266801,0.20351 0.406569,0.29517 0.417393,0.27161 0.847243,0.52076 1.288011,0.74705 0.01854,0.009 0.03731,0.0166 0.05588,0.0251 3.530827,-2.4114 7.280061,-5.5323 10.83423,-9.03758 3.549225,-3.50771 6.749292,-7.247612 9.26695,-10.806716 -0.133127,-0.362275 -0.269334,-0.723396 -0.427546,-1.074221 -1.93e-4,-3.05e-4 -2.78e-4,-5.09e-4 -3.42e-4,-6.91e-4 -0.134505,-0.295557 -0.292726,-0.577772 -0.44444,-0.863698 z m 1.657175,2.654552 c -2.554716,3.602152 -5.782807,7.361462 -9.351494,10.888362 l -2.6e-4,2.6e-4 -1.29e-4,1.2e-4 c -3.570109,3.52097 -7.335312,6.66666 -10.906044,9.11307 a 15.277114,16.199998 0 0 0 16.157028,-3.13064 15.277114,16.199998 0 0 0 4.100899,-16.871172 z"
       style="fill:#000080;fill-opacity:1;stroke-width:0.0933242" />
    <path
       inkscape:connector-curvature="0"
       id="path859"
       d="m 33.959703,12.863401 a 15.277114,16.199998 0 0 1 0.195149,0.302791 15.277114,16.199998 0 0 1 0.731533,1.421396 15.277114,16.199998 0 0 1 0.555335,1.395035 8.1413231,27.500921 45.054322 0 0 4.682219,-14.323307 8.1413231,27.500921 45.054322 0 0 -14.603107,4.472961 15.277114,16.199998 0 0 1 0.851451,0.27969 15.277114,16.199998 0 0 1 1.406275,0.631362 15.277114,16.199998 0 0 1 0.92394,0.535846 5.8546555,19.77669 45.054322 0 1 5.924689,-0.494898 5.8546555,19.77669 45.054322 0 1 -0.667484,5.779124 z"
       style="fill:#00ffff;fill-opacity:1;stroke-width:0.0507223" />
    <path
       inkscape:connector-curvature="0"
       id="path857"
       d="m 11.961562,34.581411 a 15.277114,16.199998 0 0 0 1.174225,0.85269 15.277114,16.199998 0 0 0 1.339724,0.77705 15.277114,16.199998 0 0 0 0.330872,0.14858 8.1413231,27.500921 45.054322 0 0 11.127785,-9.25549 8.1413231,27.500921 45.054322 0 0 9.507552,-11.121618 15.277114,16.199998 0 0 0 -0.555335,-1.395035 15.277114,16.199998 0 0 0 -0.731533,-1.421396 15.277114,16.199998 0 0 0 -0.195149,-0.302791 5.8546555,19.77669 45.054322 0 1 -9.536805,12.51898 5.8546555,19.77669 45.054322 0 1 -12.461336,9.19903 z"
       style="fill:#00ffff;fill-opacity:1;stroke-width:0.0507223" />
    <path
       inkscape:connector-curvature="0"
       id="circle841"
       d="M 32.309986,10.590262 A 15.277115,16.199998 0 0 1 31.535177,33.485781 15.277115,16.199998 0 0 1 9.9439719,32.664171 15.277115,16.199998 0 0 1 10.718783,9.768649 15.277115,16.199998 0 0 1 32.309986,10.590262 Z"
       style="fill:none;fill-opacity:1;stroke-width:0.0933242" />
    <circle
       r="0"
       style="fill:none;fill-opacity:1;stroke-width:0.264583"
       id="circle846"
       cx="101.29762"
       cy="145.43153" />
    <path
       inkscape:connector-curvature="0"
       id="path943"
       d="m 21.854403,27.035751 c -0.139089,0.1186 -0.614882,0.52865 -1.057319,0.91121 -2.89285,2.50134 -5.891002,4.56488 -8.469943,5.82964 -0.913921,0.44821 -0.74456,0.49935 -1.78865,-0.5401 -2.6638471,-2.65199 -4.3459011,-6.49103 -4.6158411,-10.53498 -0.05677,-0.85037 0.0037,-2.569054 0.119869,-3.403964 0.418843,-3.011784 1.627612,-5.823363 3.537181,-8.227431 0.6214281,-0.78235 2.3543361,-2.394707 3.1808961,-2.959613 2.64959,-1.810844 5.545457,-2.688348 8.64953,-2.620976 1.897723,0.04119 3.363674,0.343026 5.148025,1.059965 1.671224,0.671486 3.168963,1.609432 4.532089,2.838184 0.483512,0.435847 2.1681,2.401704 2.401167,2.80208 0.10193,0.175098 0.0885,0.21528 -0.360301,1.077973 -1.306275,2.510954 -3.101586,5.064381 -5.670403,8.064879 -0.773363,0.903323 -4.897551,5.098743 -5.6063,5.703133 z"
       style="fill:#00245e;fill-opacity:1;stroke:none;stroke-width:0.755831;stroke-miterlimit:4;stroke-dasharray:none" />
    <path
       inkscape:connector-curvature="0"
       id="path945"
       d="m 31.008523,33.939041 c -2.403939,2.11979 -5.259946,3.40614 -8.328537,3.75119 -0.897974,0.10097 -2.547769,0.0817 -3.446353,-0.0404 -0.91064,-0.12364 -2.200845,-0.44487 -3.062403,-0.76247 l -0.751359,-0.27698 0.163883,-0.10503 c 1.683803,-1.07908 5.108282,-3.81588 7.835217,-6.26181 1.407135,-1.26214 5.517031,-5.37629 6.644239,-6.65112 2.06648,-2.337121 4.591825,-5.466719 5.46,-6.766454 l 0.110795,-0.165864 0.185951,0.741298 c 0.693599,2.765042 0.694994,5.73776 0.004,8.47241 -0.546851,2.16418 -1.747838,4.57732 -3.103963,6.2368 -0.489966,0.59956 -1.30322,1.46835 -1.71148,1.82835 z"
       style="fill:#00245e;fill-opacity:1;stroke:none;stroke-width:0.755831;stroke-miterlimit:4;stroke-dasharray:none" />
    <path
       inkscape:connector-curvature="0"
       id="path974"
       d="m 24.193293,28.724221 c -2.628132,2.46413 -5.606462,4.90902 -8.370817,6.87156 -0.859865,0.61045 -1.045285,0.70822 -1.220931,0.64381 -0.158959,-0.0583 -0.171267,-0.0533 -0.05295,0.0214 0.139352,0.088 0.12271,0.11986 -0.173388,0.33238 -0.577581,0.41455 -2.818779,1.76035 -3.85566,2.31526 -2.9298321,1.56794 -5.5066751,2.35881 -7.3154071,2.2452 -1.066222,-0.067 -1.631131,-0.30284 -2.157586,-0.90087 -1.59203099,-1.80848 -0.55246999,-6.00128 2.864626,-11.55375 0.924542,-1.50229 2.151598,-3.28598 2.25776,-3.28194 0.03835,0.001 0.185719,0.41659 0.327481,0.92251 0.141761,0.5059 0.370279,1.19668 0.50782,1.53506 0.137537,0.33835 0.247757,0.68309 0.244932,0.76606 -0.0028,0.083 -0.121648,0.40283 -0.26405,0.71081 -0.950469,2.05555 -1.275655,4.05645 -0.818048,5.03355 0.414544,0.88514 1.258922,1.27116 2.548104,1.16489 0.632117,-0.0521 2.9103831,-0.69857 3.0913611,-0.87718 0.04765,-0.047 0.110025,-0.0588 0.13861,-0.0263 0.02859,0.0326 0.09104,0.0236 0.1388,-0.0199 0.04775,-0.0436 0.619192,-0.35998 1.269882,-0.70314 3.224118,-1.70036 6.508657,-4.18286 10.237433,-7.73761 4.53615,-4.324423 8.220631,-8.958788 10.09014,-12.691444 l 0.261265,-0.521643 0.143654,0.149467 c 0.138451,0.144046 0.139907,0.141762 0.04028,-0.06311 -0.07912,-0.1627 -0.02067,-0.411985 0.24918,-1.062538 0.483581,-1.165854 0.678735,-1.922514 0.746849,-2.895727 C 35.220283,7.705719 34.847217,6.949534 33.869218,6.560397 32.984544,6.208396 31.452857,6.41257 29.71029,7.114783 L 28.715233,7.515768 27.899504,7.090453 C 27.450854,6.85653 26.768363,6.543767 26.382858,6.395426 25.564185,6.080403 25.544987,6.141401 26.706001,5.368759 32.261384,1.671719 36.924614,0.06833198 39.209297,1.069675 c 0.667907,0.292734 1.224257,0.960319 1.452651,1.743087 0.18118,0.62097 0.152465,1.911803 -0.06472,2.909059 -0.482542,2.215719 -2.06677,5.529666 -4.206065,8.7984 -0.895639,1.368494 -0.911292,1.385435 -1.046962,1.133184 -0.08189,-0.152269 -0.08558,-0.138696 -0.01685,0.06203 0.08217,0.240025 0.03879,0.324111 -0.65727,1.276251 -1.893236,2.58946 -3.998259,5.091847 -6.678104,7.938725 -1.642451,1.74482 -2.091375,2.19318 -3.798655,3.79392 z m -10.05156,7.26778 c -0.205436,-0.0661 -0.184042,-0.001 0.03746,0.11372 0.07872,0.0408 0.144109,0.0453 0.145303,0.01 0.0012,-0.0353 -0.08102,-0.091 -0.182771,-0.12372 z m 20.70771,-21.541296 c -0.05259,-0.0575 -0.03804,0.04749 0.03228,0.233325 0.16694,0.440733 0.280717,0.566669 0.15835,0.175264 -0.05228,-0.167221 -0.138093,-0.351082 -0.190689,-0.408582 z m -21.33971,21.168756 c -0.07115,-0.0356 -0.07225,-0.003 -0.0028,0.0829 0.06284,0.0778 0.115515,0.10412 0.117059,0.0585 0.0015,-0.0456 -0.04988,-0.10923 -0.114256,-0.14142 z M 34.642164,14.09994 c -0.07115,-0.03557 -0.07224,-0.003 -0.0028,0.08289 0.06284,0.07778 0.115517,0.104122 0.117057,0.05853 0.0015,-0.04559 -0.04987,-0.109231 -0.114253,-0.14142 z M 12.939112,35.254301 c -0.07115,-0.0356 -0.07225,-0.003 -0.0028,0.0829 0.06284,0.0778 0.115514,0.10412 0.117058,0.0585 0.0015,-0.0456 -0.04988,-0.10924 -0.114256,-0.14142 z m -0.316495,-0.21811 c -0.07115,-0.0356 -0.07225,-0.003 -0.0028,0.0829 0.06284,0.0778 0.115513,0.10412 0.117058,0.0585 0.0015,-0.0456 -0.04988,-0.10923 -0.114257,-0.14142 z M 34.277229,13.39917 c -0.07115,-0.03558 -0.07225,-0.003 -0.0028,0.08289 0.06284,0.07778 0.115514,0.104121 0.117058,0.05853 0.0015,-0.0456 -0.04987,-0.109232 -0.114258,-0.14142 z M 12.238458,34.743971 c -0.06147,-0.0305 -0.0416,0.0244 0.04416,0.12218 0.08576,0.0977 0.136053,0.12267 0.111763,0.0554 -0.02429,-0.0672 -0.09445,-0.14715 -0.155926,-0.17765 z"
       style="fill:#4aff86;fill-opacity:1;stroke:none;stroke-width:1.05816;stroke-miterlimit:4;stroke-dasharray:none" />
    <path
       inkscape:connector-curvature="0"
       id="path976"
       d="m 29.65602,23.164171 c -0.0171,-0.0195 -0.0172,-0.0201 -0.0039,-0.0334 0.01412,-0.014 0.202107,-0.22321 0.362576,-0.40351 1.79178,-2.013129 3.29841,-3.871438 4.723675,-5.826277 0.351129,-0.481597 0.486478,-0.680873 0.556646,-0.819564 0.03693,-0.073 0.06122,-0.153132 0.06309,-0.208105 0.0017,-0.04965 -0.0065,-0.08497 -0.05731,-0.246802 -0.01095,-0.03486 -0.01364,-0.05163 -0.008,-0.05008 0.01206,0.0033 0.01604,0.0091 0.0075,0.01093 -0.0048,10e-4 -0.0038,0.0037 0.003,0.0076 0.0056,0.0033 0.02495,0.03298 0.043,0.06585 0.01807,0.03287 0.04339,0.07181 0.05632,0.08653 0.02051,0.02337 0.02674,0.02711 0.04925,0.02952 0.03881,0.0042 0.06244,-0.01138 0.13532,-0.08901 0.09744,-0.103779 0.216161,-0.271223 0.535132,-0.754696 0.719342,-1.090328 1.21303,-1.88939 1.743176,-2.821445 0.0741,-0.130269 0.13562,-0.237739 0.136717,-0.238821 0.0014,-0.0011 0.0088,0.007 0.01706,0.01794 l 0.01507,0.0199 -0.01809,0.03282 c -0.116991,0.212255 -0.457966,0.78864 -0.709682,1.19964 -0.456949,0.746097 -0.832258,1.326558 -1.356088,2.097339 -0.358315,0.527238 -0.501483,0.731658 -0.509271,0.727152 -0.0044,-0.0026 -0.006,-2.55e-4 -0.0053,0.0078 0.0013,0.01558 -0.275678,0.407335 -0.699849,0.989527 -1.394478,1.913975 -2.968297,3.859535 -4.704821,5.816112 -0.09619,0.10838 -0.208812,0.23454 -0.250279,0.28036 -0.04147,0.0458 -0.08259,0.0921 -0.09138,0.10294 l -0.01599,0.0197 z m 5.770712,-7.228569 c -0.002,-0.0025 -0.003,3.55e-4 -0.002,0.0062 0.001,0.0059 0.0037,0.01265 0.0057,0.01511 0.002,0.0025 0.003,-3.55e-4 0.002,-0.0062 -10e-4,-0.0059 -0.0037,-0.01265 -0.0057,-0.01511 z m -0.01473,-0.04349 c -0.002,-0.0025 -0.003,3.55e-4 -0.002,0.0062 0.001,0.0059 0.0037,0.01265 0.0057,0.01511 0.002,0.0025 0.003,-3.55e-4 0.002,-0.0062 -10e-4,-0.0059 -0.0037,-0.01265 -0.0057,-0.01511 z m -0.0111,-0.03047 c -0.002,-0.0025 -0.003,3.54e-4 -0.002,0.0062 10e-4,0.0059 0.0037,0.01265 0.0057,0.01511 0.002,0.0025 0.003,-3.55e-4 0.002,-0.0062 -10e-4,-0.0059 -0.0037,-0.01265 -0.0057,-0.01511 z m -0.0111,-0.03047 c -0.002,-0.0025 -0.003,3.55e-4 -0.002,0.0062 10e-4,0.0059 0.0037,0.01265 0.0057,0.01511 0.002,0.0025 0.003,-3.55e-4 0.002,-0.0062 -10e-4,-0.0059 -0.0037,-0.01265 -0.0057,-0.01511 z m -0.01473,-0.04349 c -0.002,-0.0025 -0.003,3.54e-4 -0.002,0.0062 10e-4,0.0059 0.0037,0.01265 0.0057,0.01511 0.002,0.0025 0.0031,-3.55e-4 0.002,-0.0062 -10e-4,-0.0059 -0.0037,-0.01265 -0.0057,-0.01511 z m -0.0111,-0.03048 c -0.002,-0.0025 -0.003,3.55e-4 -0.002,0.0062 10e-4,0.0059 0.0037,0.01265 0.0057,0.01511 0.002,0.0025 0.003,-3.55e-4 0.002,-0.0062 -0.001,-0.0059 -0.0037,-0.01265 -0.0057,-0.01511 z m -0.01109,-0.03048 c -0.002,-0.0025 -0.003,3.55e-4 -0.002,0.0062 0.001,0.0059 0.0037,0.01265 0.0057,0.01511 0.002,0.0025 0.003,-3.55e-4 0.002,-0.0062 -10e-4,-0.0059 -0.0037,-0.01265 -0.0057,-0.01511 z"
       style="fill:#4aff86;fill-opacity:1;stroke:none;stroke-width:0.0668067;stroke-miterlimit:4;stroke-dasharray:none" />
    <path
       inkscape:connector-curvature="0"
       id="path978"
       d="m 35.078319,15.088654 c -0.04288,-0.02198 -0.220967,-0.438965 -0.253466,-0.593493 -0.0057,-0.02638 -0.0051,-0.02981 0.0041,-0.02481 0.0089,0.0049 0.009,0.003 9.53e-4,-0.01161 -0.01579,-0.02854 -0.0037,-0.02701 0.02236,0.0028 0.04093,0.04692 0.09042,0.142564 0.142627,0.275735 0.03552,0.09064 0.0947,0.294531 0.086,0.296362 -0.0036,7.62e-4 -0.0039,0.0044 -6.98e-4,0.0081 0.0032,0.0037 0.0062,0.0168 0.0068,0.02915 6.99e-4,0.01923 -6.99e-4,0.02183 -0.0085,0.01777 z m -0.01277,-0.09388 c -0.0048,-0.0096 -0.0064,-0.01066 -0.005,-0.0034 0.0011,0.0057 0.0052,0.01672 0.0089,0.02436 0.0048,0.0096 0.0064,0.01067 0.005,0.0034 -0.0011,-0.0057 -0.0052,-0.01672 -0.0089,-0.02436 z m -0.133486,-0.307425 c -0.0032,-0.0037 -0.002,0.0028 0.0022,0.01445 0.0046,0.01159 0.01061,0.02411 0.01384,0.02778 0.0032,0.0037 0.002,-0.0028 -0.0022,-0.01446 -0.0046,-0.01159 -0.01061,-0.02411 -0.01384,-0.02778 z m -0.05036,-0.10934 c -0.0044,-0.0022 -0.0045,-2.08e-4 -4.7e-5,0.0052 0.0041,0.0048 0.0072,0.0065 0.0073,0.0037 -7e-6,-0.0028 -0.0032,-0.0068 -0.0072,-0.0088 z m -0.03245,-0.07417 c -0.0036,-0.0042 -0.0043,-0.0021 -0.0017,0.0058 0.0022,0.0069 0.0068,0.01543 0.01005,0.0191 0.0036,0.0042 0.0043,0.0021 0.0017,-0.0058 -0.0022,-0.0069 -0.0068,-0.01543 -0.01002,-0.0191 z"
       style="fill:#4aff86;fill-opacity:1;stroke:none;stroke-width:0.0668067;stroke-miterlimit:4;stroke-dasharray:none" />
    <path
       inkscape:connector-curvature="0"
       id="path980"
       d="m 34.73315,14.182589 c -0.0043,-0.0054 -0.0044,-0.0074 4.7e-5,-0.0052 0.004,0.002 0.0072,0.006 0.0072,0.0088 6e-6,0.0028 -0.0034,0.0012 -0.0073,-0.0037 z"
       style="fill:#4aff86;fill-opacity:1;stroke:none;stroke-width:0.0668067;stroke-miterlimit:4;stroke-dasharray:none" />
    <path
       transform="scale(0.26458333)"
       inkscape:connector-curvature="0"
       id="path982"
       d=""
       style="fill:#4aff86;fill-opacity:1;stroke:none;stroke-width:0.715856;stroke-miterlimit:4;stroke-dasharray:none" />
    <path
       inkscape:connector-curvature="0"
       id="path984"
       d="m 34.735317,14.257006 c -0.0032,-0.0036 -0.0083,-0.0054 -0.01137,-0.0039 -0.0093,0.0045 -0.06327,-0.04405 -0.09153,-0.08229 -0.05022,-0.06795 -0.05278,-0.09468 -0.0072,-0.07382 0.04281,0.01954 0.06089,0.03285 0.09061,0.0667 0.02083,0.02375 0.03066,0.03959 0.03481,0.05624 0.0061,0.02402 -0.0046,0.04945 -0.01544,0.03708 z m -0.016,-0.02432 c -0.0044,-0.0022 -0.0045,-2.08e-4 -4.6e-5,0.0052 0.0041,0.0048 0.0072,0.0065 0.0073,0.0037 -7e-6,-0.0028 -0.0032,-0.0068 -0.0072,-0.0088 z m -0.01891,-0.03935 c -0.0044,-0.0022 -0.0045,-2.08e-4 -4.5e-5,0.0052 0.0041,0.0048 0.0072,0.0065 0.0073,0.0037 -6e-6,-0.0028 -0.0032,-0.0068 -0.0072,-0.0088 z m -0.01891,-0.03935 c -0.0044,-0.0022 -0.0045,-2.08e-4 -4.6e-5,0.0052 0.0041,0.0048 0.0072,0.0065 0.0073,0.0037 -7e-6,-0.0028 -0.0032,-0.0068 -0.0072,-0.0088 z m -0.01141,-0.0219 c -0.0044,-0.0022 -0.0045,-2.08e-4 -4.5e-5,0.0052 0.0041,0.0048 0.0072,0.0065 0.0073,0.0037 -7e-6,-0.0028 -0.0032,-0.0068 -0.0072,-0.0088 z"
       style="fill:#4aff86;fill-opacity:1;stroke:none;stroke-width:0.0668067;stroke-miterlimit:4;stroke-dasharray:none" />
    <path
       inkscape:connector-curvature="0"
       id="path986"
       d="m 34.373217,13.550702 c -0.0056,-0.0062 -0.0068,-0.0059 -0.0055,0.0017 0.0035,0.01991 -0.03847,-0.0122 -0.08246,-0.06309 -0.06319,-0.07312 -0.07622,-0.113957 -0.03082,-0.09671 0.05574,0.02118 0.12066,0.08378 0.131309,0.12663 0.0064,0.02578 -10e-4,0.04445 -0.01257,0.03153 z m -0.01855,-0.02737 c -0.0044,-0.0022 -0.0045,-2.08e-4 -4.6e-5,0.0052 0.0041,0.0048 0.0072,0.0065 0.0073,0.0037 -7e-6,-0.0028 -0.0032,-0.0068 -0.0072,-0.0088 z m -0.01141,-0.0219 c -0.0044,-0.0022 -0.0045,-2.08e-4 -4.6e-5,0.0052 0.0041,0.0048 0.0072,0.0065 0.0073,0.0037 -7e-6,-0.0028 -0.0032,-0.0068 -0.0072,-0.0088 z m -0.01565,-0.02653 c -0.0038,-0.0019 -0.0025,0.0015 0.0027,0.0076 0.0053,0.0061 0.0085,0.0077 0.007,0.0035 -0.0016,-0.0042 -0.0059,-0.0092 -0.0097,-0.0111 z m -0.01108,-0.0217 c -0.0044,-0.0022 -0.0045,-2.08e-4 -4.7e-5,0.0052 0.0041,0.0048 0.0072,0.0065 0.0073,0.0037 -7e-6,-0.0028 -0.0032,-0.0068 -0.0072,-0.0088 z m -0.01565,-0.02653 c -0.0038,-0.0019 -0.0025,0.0015 0.0027,0.0076 0.0053,0.0061 0.0085,0.0077 0.007,0.0035 -0.0016,-0.0042 -0.0059,-0.0092 -0.0097,-0.0111 z"
       style="fill:#4aff86;fill-opacity:1;stroke:none;stroke-width:0.0668067;stroke-miterlimit:4;stroke-dasharray:none" />
    <path
       inkscape:connector-curvature="0"
       id="path988"
       d="m 28.126528,21.421553 c -0.0019,-0.0023 0.0091,-0.01868 0.02444,-0.03674 0.367387,-0.432215 0.640247,-0.759266 0.907527,-1.087773 2.673142,-3.28549 4.595248,-6.380757 5.51842,-8.886602 0.194132,-0.526945 0.354882,-1.079878 0.441388,-1.518245 0.0077,-0.03927 0.01582,-0.07134 0.0179,-0.07126 0.01083,4.36e-4 -0.06787,0.395267 -0.120449,0.604122 -0.116989,0.464705 -0.257049,0.871209 -0.539559,1.56597 -0.05036,0.12385 -0.109198,0.271217 -0.130747,0.327481 -0.126157,0.329375 -0.172572,0.544991 -0.144407,0.670832 0.0046,0.01981 0.02641,0.07558 0.04879,0.123911 0.02242,0.04832 0.04171,0.0921 0.04291,0.09727 0.0037,0.01634 -0.0603,-0.04192 -0.155876,-0.141756 -0.05019,-0.05243 -0.09246,-0.09538 -0.09394,-0.09543 -0.0014,-6.8e-5 -0.05049,0.09559 -0.108914,0.212541 -0.155705,0.311691 -0.31553,0.624014 -0.414453,0.809913 -1.164621,2.188577 -2.943996,4.701699 -5.143716,7.264788 -0.128775,0.150046 -0.144263,0.16674 -0.149337,0.16096 z m 6.037289,-8.24033 c -0.0044,-0.0022 -0.0045,-2.08e-4 -4.6e-5,0.0052 0.0041,0.0048 0.0072,0.0065 0.0073,0.0037 -7e-6,-0.0028 -0.0032,-0.0068 -0.0072,-0.0088 z m -0.01952,-0.03097 c -0.0038,-0.0019 -0.0025,0.0015 0.0027,0.0076 0.0053,0.0061 0.0085,0.0077 0.007,0.0035 -0.0016,-0.0042 -0.0059,-0.0092 -0.0097,-0.0111 z m -0.02096,-0.03305 c -0.0049,-0.0033 -0.0036,1.1e-4 0.0027,0.0075 0.0064,0.0074 0.01031,0.01009 0.0088,0.006 -0.0015,-0.0042 -0.0067,-0.0102 -0.01157,-0.01346 z m -0.01919,-0.03078 c -0.0049,-0.0033 -0.0036,1.1e-4 0.0027,0.0075 0.0064,0.0074 0.01031,0.01009 0.0088,0.006 -0.0015,-0.0042 -0.0067,-0.0102 -0.01156,-0.01346 z m -0.02136,-0.03296 c -0.0038,-0.0019 -0.0025,0.0015 0.0027,0.0076 0.0053,0.0061 0.0085,0.0077 0.007,0.0035 -0.0016,-0.0042 -0.0059,-0.0092 -0.0097,-0.0111 z m -0.02096,-0.03304 c -0.0049,-0.0033 -0.0036,1.09e-4 0.0027,0.0075 0.0064,0.0074 0.01031,0.01009 0.0088,0.006 -0.0015,-0.0042 -0.0067,-0.01021 -0.01157,-0.01346 z m -0.0231,-0.03522 c -0.0049,-0.0033 -0.0036,1.09e-4 0.0027,0.0075 0.0064,0.0074 0.01031,0.01009 0.0088,0.006 -0.0015,-0.0042 -0.0067,-0.01021 -0.01157,-0.01345 z m -0.01919,-0.03078 c -0.0049,-0.0033 -0.0036,1.09e-4 0.0027,0.0075 0.0064,0.0074 0.01031,0.01009 0.0088,0.006 -0.0015,-0.0042 -0.0067,-0.0102 -0.01157,-0.01345 z m -0.0231,-0.03522 c -0.0049,-0.0033 -0.0036,1.1e-4 0.0027,0.0075 0.0064,0.0074 0.01031,0.01009 0.0088,0.006 -0.0015,-0.0042 -0.0067,-0.01021 -0.01157,-0.01345 z m -0.0231,-0.03522 c -0.0049,-0.0033 -0.0036,1.1e-4 0.0027,0.0075 0.0064,0.0074 0.01031,0.01009 0.0088,0.006 -0.0015,-0.0042 -0.0067,-0.0102 -0.01157,-0.01346 z"
       style="fill:#4aff86;fill-opacity:1;stroke:none;stroke-width:0.0668067;stroke-miterlimit:4;stroke-dasharray:none" />
    <path
       inkscape:connector-curvature="0"
       id="path990"
       d="m 35.08508,15.09345 c -0.006,0.0012 -0.01576,-0.0081 -0.02947,-0.02815 -0.03021,-0.04432 -0.07495,-0.136439 -0.123853,-0.254951 l -0.005,-0.01183 9.53e-4,-0.001 9.53e-4,-10e-4 0.0025,0.0063 c 0.03847,0.09352 0.08331,0.189206 0.111688,0.2384 0.01196,0.02075 0.01988,0.03241 0.02775,0.04095 0.004,0.0042 0.0048,0.0051 0.0068,0.0062 0.003,0.0016 0.0058,0.0024 0.007,0.0018 0.0023,-0.0011 0.0029,-0.0072 0.0024,-0.01932 -4.46e-4,-0.01175 -0.0035,-0.02528 -0.0063,-0.02838 -0.0012,-0.0016 -0.0026,-0.0042 -0.0024,-0.0055 4.2e-5,-0.0012 0.0013,-0.0031 0.0018,-0.0026 1.24e-4,1.41e-4 6.99e-4,-1.38e-4 9.53e-4,-5.81e-4 0.0012,-0.0012 0.0012,-0.0042 -2.7e-5,-0.01127 -0.0069,-0.0438 -0.05354,-0.20027 -0.08259,-0.276441 -0.0021,-0.0057 -0.0041,-0.01102 -0.0046,-0.01172 -4.11e-4,-10e-4 -3.29e-4,-0.0015 7.3e-5,-0.0021 2.86e-4,-4.72e-4 9.53e-4,-9e-4 9.53e-4,-7.61e-4 6e-5,7e-5 0.0015,0.0036 0.003,0.0079 0.02278,0.0592 0.04022,0.11139 0.06038,0.180847 0.01491,0.05132 0.02572,0.09628 0.03017,0.12525 0.0016,0.0103 0.0017,0.01189 0.0011,0.01175 -3.17e-4,-8e-5 -3.25e-4,5.6e-5 2.48e-4,3.99e-4 3.76e-4,2.87e-4 4.11e-4,5.45e-4 4.11e-4,5.45e-4 -2.57e-4,-9e-6 -2.08e-4,4.72e-4 -3.5e-5,0.0011 1.72e-4,6.17e-4 5.14e-4,0.0033 6.99e-4,0.006 0.0012,0.01784 -6.35e-4,0.02729 -0.0058,0.02841 z m 0.0036,-0.03895 c -2.98e-4,-6.17e-4 -3.43e-4,-6.9e-4 -3.14e-4,-2.16e-4 5.3e-5,3.42e-4 3.05e-4,10e-4 5.49e-4,0.0015 2.97e-4,6.18e-4 3.76e-4,6.9e-4 3.13e-4,2.16e-4 -5.3e-5,-3.42e-4 -3.05e-4,-10e-4 -5.48e-4,-0.0015 z m -0.0039,-0.0094 c -2.98e-4,-6.18e-4 -3.42e-4,-6.9e-4 -3.13e-4,-2.16e-4 5.2e-5,3.42e-4 3.04e-4,10e-4 5.48e-4,0.0015 2.98e-4,6.18e-4 3.42e-4,6.9e-4 3.14e-4,2.16e-4 -5.4e-5,-3.42e-4 -3.02e-4,-10e-4 -5.49e-4,-0.0015 z m -0.0035,-0.0084 c -2.97e-4,-6.18e-4 -3.76e-4,-6.91e-4 -3.13e-4,-2.17e-4 5.3e-5,3.43e-4 3.05e-4,10e-4 5.48e-4,0.0015 2.98e-4,6.17e-4 3.43e-4,6.9e-4 3.13e-4,2.15e-4 -5.2e-5,-3.41e-4 -3.01e-4,-10e-4 -5.48e-4,-0.0015 z"
       style="fill:#4aff86;fill-opacity:1;stroke:none;stroke-width:0.00413345;stroke-miterlimit:4;stroke-dasharray:none" />
    <path
       transform="scale(0.26458333)"
       inkscape:connector-curvature="0"
       id="path992"
       d=""
       style="fill:#4aff86;fill-opacity:1;stroke:none;stroke-width:0.0442913;stroke-miterlimit:4;stroke-dasharray:none" />
    <path
       inkscape:connector-curvature="0"
       id="path994"
       d="m 35.074047,15.023239 c -8.26e-4,-0.0012 -0.0048,-0.0082 -0.0066,-0.0125 -0.0043,-0.0099 -0.0081,-0.02241 -0.0068,-0.02267 1.93e-4,-6e-5 1.61e-4,-2.39e-4 -4.8e-5,-4.72e-4 -1.85e-4,-2.11e-4 -2.38e-4,-5.45e-4 -1.06e-4,-6.9e-4 2.99e-4,-3.63e-4 0.0011,6.53e-4 0.0033,0.0045 0.004,0.007 0.0071,0.01495 0.0094,0.02289 0.0017,0.0051 0.0018,0.0065 6.98e-4,0.0047 -4.46e-4,-8.31e-4 -4.11e-4,-7.62e-4 -1.45e-4,3.99e-4 2.36e-4,6.9e-4 5.14e-4,0.0013 8.25e-4,0.0014 1.93e-4,7.5e-5 3.05e-4,2.27e-4 1.88e-4,3.4e-4 -1.35e-4,1.32e-4 -8.8e-5,5.82e-4 9.1e-5,0.0011 4.11e-4,0.0012 -6.1e-5,0.0019 -5.48e-4,0.001 z m -0.0046,-0.01489 c -2.99e-4,-6.17e-4 -3.43e-4,-6.9e-4 -3.11e-4,-2.16e-4 5e-5,3.43e-4 3.05e-4,10e-4 5.48e-4,0.0015 2.99e-4,6.17e-4 3.77e-4,6.9e-4 3.14e-4,2.15e-4 -5.3e-5,-3.41e-4 -3.05e-4,-10e-4 -5.48e-4,-0.0015 z m -0.0049,-0.01161 c -2.97e-4,-6.17e-4 -4.1e-4,-6.53e-4 -3.13e-4,-2.16e-4 5.3e-5,3.42e-4 3.05e-4,10e-4 5.48e-4,0.0015 2.98e-4,6.17e-4 3.43e-4,6.9e-4 3.14e-4,2.15e-4 -5.3e-5,-3.41e-4 -3.05e-4,-0.001 -5.49e-4,-0.0015 z"
       style="fill:#4aff86;fill-opacity:1;stroke:none;stroke-width:0.00413345;stroke-miterlimit:4;stroke-dasharray:none" />
    <path
       inkscape:connector-curvature="0"
       id="path996"
       d="m 34.747314,14.261713 c -0.0026,0.0014 -0.0055,0.002 -0.0093,0.0018 -0.0024,-1.69e-4 -0.0035,-3.15e-4 -0.0037,-9.69e-4 -3.42e-4,-6.9e-4 -4.11e-4,-6.53e-4 -1.89e-4,-7.5e-5 1.73e-4,6.18e-4 -2.13e-4,6.18e-4 -0.0028,-1.22e-4 -0.02433,-0.007 -0.0613,-0.04019 -0.09981,-0.08965 -0.02757,-0.0354 -0.04214,-0.06062 -0.04324,-0.0748 -0.0013,-0.01602 0.01618,-0.01599 0.04973,1.33e-4 0.02555,0.01228 0.04882,0.02885 0.0697,0.04965 0.0071,0.0071 0.0203,0.02258 0.02357,0.02772 l 8.26e-4,0.0012 -0.0011,-1.69e-4 c -0.0011,-1.47e-4 -10e-4,-3.7e-5 -9.52e-4,6.54e-4 -8.7e-5,0.002 0.005,0.0083 0.008,0.01 l 0.0018,10e-4 0.0023,0.0042 c 0.01279,0.02298 0.0175,0.04628 0.01226,0.06051 -0.0015,0.0044 -0.0036,0.007 -0.0069,0.0089 z m 0.002,-0.0091 c 0.0029,-0.0069 0.004,-0.01827 0.0026,-0.02715 -0.0022,-0.01493 -0.0093,-0.02872 -0.02394,-0.04757 -0.0053,-0.0067 -0.0256,-0.02959 -0.0309,-0.03466 -0.0087,-0.0083 -0.01679,-0.01513 -0.02409,-0.02025 -0.0039,-0.0027 -0.0099,-0.0067 -0.01078,-0.0071 -2.53e-4,-1.44e-4 -0.0026,-0.0014 -0.0049,-0.0028 -0.0097,-0.0057 -0.02975,-0.01548 -0.03886,-0.01901 -0.009,-0.0035 -0.01646,-0.0048 -0.0204,-0.0035 -0.0059,0.0019 -0.0068,0.0088 -0.0026,0.02013 0.0072,0.01958 0.03515,0.06088 0.05809,0.08579 0.02755,0.02993 0.05642,0.0543 0.0674,0.05687 6.99e-4,2.5e-4 0.0024,9.9e-5 0.0031,-1.39e-4 0.002,-6.18e-4 0.0047,-4e-4 0.0055,5.08e-4 3.08e-4,3.6e-4 7.62e-4,4.72e-4 6.99e-4,3.01e-4 1.43e-4,-5.45e-4 0.0029,0.0012 0.0051,0.0034 0.0023,0.0024 0.0048,0.0033 0.0069,0.0028 0.0023,-5.45e-4 0.0053,-0.0039 0.0069,-0.0076 z m -0.01637,0.0072 c -2.52e-4,-1.46e-4 -2.56e-4,-10e-6 -1e-5,2.72e-4 2.37e-4,2.92e-4 3.76e-4,3.99e-4 3.76e-4,2.3e-4 4e-6,-1.36e-4 -2.4e-4,-4e-4 -4.11e-4,-5.45e-4 z m -0.001,-0.0025 c -2.52e-4,-1.45e-4 -2.56e-4,-9e-6 -7e-6,2.72e-4 2.33e-4,2.93e-4 3.77e-4,4e-4 3.77e-4,2.3e-4 7e-6,-1.36e-4 -2.41e-4,-3.99e-4 -4.11e-4,-5.45e-4 z m -10e-4,-0.0025 c -2.49e-4,-1.47e-4 -2.56e-4,-1.1e-5 -7e-6,2.71e-4 2.33e-4,2.93e-4 3.77e-4,3.99e-4 3.77e-4,2.3e-4 7e-6,-1.36e-4 -2.41e-4,-4e-4 -4.11e-4,-5.45e-4 z m -0.0684,-0.140193 c -2.49e-4,-1.46e-4 -2.53e-4,-10e-6 -7e-6,2.71e-4 2.37e-4,2.93e-4 3.77e-4,4e-4 3.77e-4,2.3e-4 4e-6,-1.35e-4 -2.41e-4,-3.99e-4 -4.11e-4,-5.44e-4 z m -8.25e-4,-0.0013 c -2.53e-4,-1.46e-4 -2.57e-4,-10e-6 -1.1e-5,2.72e-4 2.37e-4,2.92e-4 3.76e-4,3.99e-4 3.76e-4,2.29e-4 4e-6,-1.35e-4 -2.4e-4,-3.99e-4 -4.1e-4,-5.44e-4 z m -10e-4,-0.0025 c -2.53e-4,-1.45e-4 -2.56e-4,-10e-6 -1e-5,2.72e-4 2.37e-4,2.93e-4 3.76e-4,3.99e-4 3.76e-4,2.3e-4 4e-6,-1.35e-4 -2.4e-4,-4e-4 -4.11e-4,-5.45e-4 z"
       style="fill:#4aff86;fill-opacity:1;stroke:none;stroke-width:0.00413345;stroke-miterlimit:4;stroke-dasharray:none" />
    <path
       inkscape:connector-curvature="0"
       id="path998"
       d="m 34.724225,14.242411 c -0.0011,-4.72e-4 -0.0023,-0.0014 -0.0043,-0.0039 -0.0032,-0.0034 -0.0043,-0.0057 -0.0036,-0.0064 6.16e-4,-5.46e-4 0.0038,10e-4 0.006,0.0028 0.0041,0.0034 0.0056,0.0092 0.002,0.0075 z m -2.83e-4,-0.001 c -2.5e-4,-1.46e-4 -2.57e-4,-9e-6 -8e-6,2.72e-4 2.34e-4,2.92e-4 3.77e-4,3.99e-4 3.77e-4,2.3e-4 7e-6,-1.36e-4 -2.41e-4,-3.99e-4 -4.11e-4,-5.45e-4 z m -10e-4,-0.0025 c -2.5e-4,-1.46e-4 -2.57e-4,-10e-6 -8e-6,2.71e-4 2.34e-4,2.93e-4 3.77e-4,3.99e-4 3.77e-4,2.3e-4 3e-6,-1.35e-4 -2.44e-4,-3.99e-4 -4.11e-4,-5.44e-4 z m -0.001,-0.0025 c -2.49e-4,-1.45e-4 -2.53e-4,-10e-6 -7e-6,2.72e-4 2.37e-4,2.91e-4 3.77e-4,3.99e-4 3.77e-4,2.3e-4 3e-6,-1.36e-4 -2.41e-4,-4e-4 -4.12e-4,-5.45e-4 z m -10e-4,-0.0025 c -2.53e-4,-1.45e-4 -2.56e-4,-9e-6 -1.1e-5,2.72e-4 2.37e-4,2.92e-4 3.77e-4,4e-4 3.77e-4,2.3e-4 4e-6,-1.36e-4 -2.41e-4,-3.99e-4 -4.11e-4,-5.45e-4 z"
       style="fill:#4aff86;fill-opacity:1;stroke:none;stroke-width:0.00413345;stroke-miterlimit:4;stroke-dasharray:none" />
    <path
       inkscape:connector-curvature="0"
       id="path1000"
       d="m 34.705754,14.20319 c -6.98e-4,-2.5e-4 -0.0018,-9.69e-4 -0.0039,-0.0034 -0.0032,-0.0036 -0.0051,-0.0064 -0.0043,-0.007 0.0013,-9e-4 0.0064,0.0024 0.0084,0.0053 0.0013,0.0017 0.0014,0.0026 0.0015,0.0039 -4.2e-5,0.0012 -1.78e-4,0.0013 -0.0016,10e-4 z m -0.0013,-0.0024 c -2.52e-4,-1.45e-4 -2.56e-4,-10e-6 -10e-6,2.72e-4 2.37e-4,2.92e-4 3.76e-4,3.99e-4 3.76e-4,2.31e-4 4e-6,-1.37e-4 -2.4e-4,-4e-4 -4.11e-4,-5.45e-4 z m -10e-4,-0.0025 c -2.52e-4,-1.44e-4 -2.56e-4,-9e-6 -1.1e-5,2.72e-4 2.37e-4,2.93e-4 3.77e-4,4e-4 3.77e-4,2.31e-4 4e-6,-1.36e-4 -2.41e-4,-4e-4 -4.11e-4,-5.45e-4 z m -8.25e-4,-0.0013 c -2.5e-4,-1.46e-4 -2.57e-4,-9e-6 -8e-6,2.72e-4 2.34e-4,2.92e-4 3.77e-4,3.99e-4 3.77e-4,2.3e-4 7e-6,-1.36e-4 -2.41e-4,-3.99e-4 -4.11e-4,-5.45e-4 z m -0.001,-0.0025 c -2.49e-4,-1.46e-4 -2.56e-4,-1.1e-5 -7e-6,2.71e-4 2.34e-4,2.93e-4 3.76e-4,3.99e-4 3.76e-4,2.3e-4 8e-6,-1.36e-4 -2.4e-4,-3.99e-4 -4.1e-4,-5.45e-4 z"
       style="fill:#4aff86;fill-opacity:1;stroke:none;stroke-width:0.00413345;stroke-miterlimit:4;stroke-dasharray:none" />
    <path
       inkscape:connector-curvature="0"
       id="path1002"
       d="m 34.68729,14.164101 c -3.43e-4,-2e-5 -0.0011,-4.72e-4 -0.0012,-0.0012 -4.11e-4,-7.62e-4 -4.45e-4,-8.31e-4 -3.77e-4,-2.87e-4 4.11e-4,0.0013 -0.0022,-0.0012 -0.0047,-0.0044 -0.0024,-0.0029 -0.0029,-0.0042 -0.0024,-0.0048 6.16e-4,-5.45e-4 0.0025,3.5e-4 0.0033,0.0014 3.77e-4,6.9e-4 4.45e-4,6.9e-4 2.53e-4,1.45e-4 -1.73e-4,-6.18e-4 1.7e-5,-5.45e-4 0.0011,2.17e-4 0.003,0.0021 0.0058,0.0063 0.0052,0.0081 -2.28e-4,9.69e-4 -2.23e-4,9.69e-4 -0.0013,9e-4 z m -0.0025,-0.0031 c -2.53e-4,-1.46e-4 -2.57e-4,-1e-5 -1.1e-5,2.71e-4 2.37e-4,2.93e-4 3.77e-4,3.99e-4 3.77e-4,2.3e-4 3e-6,-1.35e-4 -2.41e-4,-3.99e-4 -4.11e-4,-5.44e-4 z m -10e-4,-0.0025 c -2.53e-4,-1.45e-4 -2.57e-4,-10e-6 -1.1e-5,2.72e-4 2.37e-4,2.92e-4 3.76e-4,3.99e-4 3.76e-4,2.3e-4 4e-6,-1.36e-4 -2.4e-4,-4e-4 -4.1e-4,-5.45e-4 z m -8.26e-4,-0.0013 c -2.53e-4,-1.45e-4 -2.57e-4,-1e-5 -1.1e-5,2.72e-4 2.37e-4,2.92e-4 3.77e-4,4e-4 3.77e-4,2.3e-4 4e-6,-1.35e-4 -2.41e-4,-3.99e-4 -4.11e-4,-5.44e-4 z"
       style="fill:#4aff86;fill-opacity:1;stroke:none;stroke-width:0.00413345;stroke-miterlimit:4;stroke-dasharray:none" />
    <path
       inkscape:connector-curvature="0"
       id="path1004"
       d="m 34.675843,14.142159 c -0.0014,-1.44e-4 -0.0038,-0.0024 -0.0062,-0.0054 -0.0037,-0.0046 -0.0039,-0.0062 -6.99e-4,-0.005 0.0037,0.0016 0.0077,0.0057 0.008,0.0083 1.85e-4,0.0015 -6.4e-5,0.0023 -0.0011,0.0021 z m -0.0013,-0.0023 c -2.5e-4,-1.45e-4 -2.54e-4,-10e-6 -8e-6,2.72e-4 2.37e-4,2.91e-4 3.77e-4,3.99e-4 3.77e-4,2.3e-4 4e-6,-1.37e-4 -2.41e-4,-4e-4 -4.11e-4,-5.45e-4 z m -8.26e-4,-0.0013 c -2.53e-4,-1.46e-4 -2.57e-4,-1e-5 -1.1e-5,2.72e-4 2.37e-4,2.92e-4 3.77e-4,3.99e-4 3.77e-4,2.3e-4 4e-6,-1.36e-4 -2.41e-4,-4e-4 -4.11e-4,-5.45e-4 z m -0.001,-0.0025 c -2.5e-4,-1.46e-4 -2.53e-4,-10e-6 -8e-6,2.71e-4 2.34e-4,2.93e-4 3.77e-4,4e-4 3.77e-4,2.31e-4 4e-6,-1.36e-4 -2.41e-4,-3.99e-4 -4.11e-4,-5.45e-4 z m -8.26e-4,-0.0013 c -2.52e-4,-1.45e-4 -2.56e-4,-1e-5 -1e-5,2.72e-4 2.36e-4,2.92e-4 3.76e-4,4e-4 3.76e-4,2.31e-4 4e-6,-1.37e-4 -2.41e-4,-4e-4 -4.11e-4,-5.45e-4 z"
       style="fill:#4aff86;fill-opacity:1;stroke:none;stroke-width:0.00413345;stroke-miterlimit:4;stroke-dasharray:none" />
    <path
       inkscape:connector-curvature="0"
       id="path1006"
       d="m 34.992095,14.730045 c -0.04679,-0.118348 -0.09127,-0.206152 -0.129817,-0.256351 -0.0045,-0.0059 -0.01698,-0.02006 -0.02135,-0.02431 -0.009,-0.0087 -0.01548,-0.01268 -0.01747,-0.01069 -0.0022,0.002 -1.1e-5,0.0082 0.0065,0.0205 0.0018,0.0035 0.0041,0.0076 0.0046,0.0091 0.0024,0.0053 0.0014,0.0055 -0.0068,0.0013 -0.0057,-0.0028 -0.0071,-0.0012 -0.0064,0.0064 0.0019,0.01773 0.01348,0.06279 0.02852,0.109267 0.01815,0.05619 0.04639,0.132259 0.07517,0.202412 l 0.0035,0.0087 -9.53e-4,8.99e-4 c -6.17e-4,5.08e-4 -9.53e-4,7.62e-4 -9.53e-4,6.18e-4 -7.62e-4,-6.9e-4 -0.01787,-0.04397 -0.02977,-0.07456 -0.03022,-0.07784 -0.0481,-0.12937 -0.06178,-0.178267 -0.01256,-0.0449 -0.0182,-0.07567 -0.0171,-0.09366 3.12e-4,-0.0058 6.99e-4,-0.0082 0.0018,-0.008 3.76e-4,1.75e-4 3.42e-4,4.2e-5 7.5e-5,-2e-4 -7.62e-4,-5.44e-4 5.82e-4,-0.0037 0.0024,-0.0057 0.0012,-0.0014 0.0018,-0.0018 0.0032,-0.0021 0.01077,-0.0026 0.03381,0.02285 0.06068,0.06694 0.03186,0.05228 0.0686,0.128582 0.101675,0.211178 0.005,0.01229 0.0069,0.01734 0.0069,0.01755 -1.4e-5,8.3e-5 -2.71e-4,5.81e-4 -5.48e-4,10e-4 l -5.82e-4,9e-4 z m -0.160339,-0.261197 c -2.49e-4,-1.46e-4 -2.56e-4,-10e-6 -7e-6,2.71e-4 2.33e-4,2.93e-4 3.77e-4,4e-4 3.77e-4,2.3e-4 7e-6,-1.35e-4 -2.41e-4,-3.99e-4 -4.12e-4,-5.44e-4 z m -0.0015,-0.0035 c -2.5e-4,-1.46e-4 -2.57e-4,-9e-6 -8e-6,2.72e-4 2.37e-4,2.92e-4 3.77e-4,3.99e-4 3.77e-4,2.29e-4 7e-6,-1.35e-4 -2.41e-4,-3.99e-4 -4.11e-4,-5.44e-4 z m -0.0015,-0.0035 c -2.5e-4,-1.46e-4 -2.54e-4,-10e-6 -8e-6,2.72e-4 2.37e-4,2.92e-4 3.77e-4,3.99e-4 3.77e-4,2.3e-4 4e-6,-1.36e-4 -2.41e-4,-4e-4 -4.11e-4,-5.45e-4 z m -0.0015,-0.0035 c -2.53e-4,-1.46e-4 -2.57e-4,-1e-5 -1.1e-5,2.72e-4 2.37e-4,2.92e-4 3.77e-4,3.99e-4 3.77e-4,2.3e-4 4e-6,-1.36e-4 -2.41e-4,-4e-4 -4.11e-4,-5.45e-4 z m -0.0015,-0.0035 c -2.53e-4,-1.45e-4 -2.57e-4,-9e-6 -1.1e-5,2.72e-4 2.37e-4,2.92e-4 3.77e-4,4e-4 3.77e-4,2.3e-4 4e-6,-1.35e-4 -2.41e-4,-3.99e-4 -4.11e-4,-5.44e-4 z m -0.002,-0.0046 c -2.46e-4,-2.81e-4 -2.49e-4,-1.45e-4 -7.5e-5,3.37e-4 1.19e-4,4.36e-4 4.45e-4,9.69e-4 4.79e-4,0.0012 2.46e-4,2.81e-4 2.5e-4,1.46e-4 7.6e-5,-3.38e-4 -1.15e-4,-4.36e-4 -4.45e-4,-9.68e-4 -4.8e-4,-0.0012 z m -0.0013,-0.0024 c -2.53e-4,-1.46e-4 -2.57e-4,-9e-6 -1.1e-5,2.72e-4 2.37e-4,2.93e-4 3.77e-4,4e-4 3.77e-4,2.3e-4 3e-6,-1.35e-4 -2.41e-4,-4e-4 -4.11e-4,-5.45e-4 z m -0.0015,-0.0035 c -2.53e-4,-1.46e-4 -2.57e-4,-9e-6 -1.1e-5,2.72e-4 2.37e-4,2.92e-4 3.77e-4,3.99e-4 3.77e-4,2.3e-4 4e-6,-1.36e-4 -2.41e-4,-4e-4 -4.11e-4,-5.45e-4 z"
       style="fill:#4aff86;fill-opacity:1;stroke:none;stroke-width:0.00413345;stroke-miterlimit:4;stroke-dasharray:none" />
    <path
       inkscape:connector-curvature="0"
       id="path1008"
       d="m 34.859906,14.530381 c -0.0022,-6.9e-4 -0.0079,-0.0095 -0.01104,-0.01781 -0.0016,-0.0044 -0.0028,-0.0084 -0.0026,-0.0098 1.03e-4,-10e-4 1.03e-4,-10e-4 9.53e-4,-6.9e-4 0.0018,6.92e-4 0.0069,0.0085 0.01019,0.01603 0.0019,0.0039 0.0037,0.01015 0.0035,0.01154 -9.2e-5,8.99e-4 -1.59e-4,9.69e-4 -9.52e-4,6.92e-4 z m -9.3e-5,-9.69e-4 c -2.54e-4,-1.45e-4 -2.57e-4,-9e-6 -1.1e-5,2.72e-4 2.37e-4,2.92e-4 3.77e-4,4e-4 3.77e-4,2.3e-4 3e-6,-1.36e-4 -2.41e-4,-3.99e-4 -4.11e-4,-5.45e-4 z m -0.0015,-0.0035 c -2.53e-4,-1.46e-4 -2.57e-4,-10e-6 -8e-6,2.71e-4 2.34e-4,2.93e-4 3.77e-4,3.99e-4 3.77e-4,2.3e-4 8e-6,-1.36e-4 -2.41e-4,-4e-4 -4.11e-4,-5.45e-4 z m -0.002,-0.0046 c -2.46e-4,-2.82e-4 -2.49e-4,-1.46e-4 -7.5e-5,3.37e-4 1.15e-4,4.36e-4 4.45e-4,9.69e-4 4.79e-4,0.0012 2.46e-4,2.83e-4 2.5e-4,1.46e-4 7.6e-5,-3.37e-4 -1.19e-4,-4.35e-4 -4.46e-4,-9.69e-4 -4.8e-4,-0.0012 z m -0.0018,-0.0035 c -2.52e-4,-1.46e-4 -2.56e-4,-10e-6 -10e-6,2.71e-4 2.36e-4,2.93e-4 3.76e-4,3.99e-4 3.76e-4,2.3e-4 4e-6,-1.35e-4 -2.41e-4,-4e-4 -4.11e-4,-5.45e-4 z m -0.002,-0.0046 c -2.46e-4,-2.82e-4 -2.5e-4,-1.46e-4 -7.5e-5,3.37e-4 1.18e-4,4.36e-4 4.45e-4,9.69e-4 4.79e-4,0.0012 2.46e-4,2.81e-4 2.5e-4,1.46e-4 7.5e-5,-3.37e-4 -1.15e-4,-4.36e-4 -4.45e-4,-9.69e-4 -4.79e-4,-0.0012 z m -0.0018,-0.0035 c -2.54e-4,-1.45e-4 -2.57e-4,-9e-6 -1.1e-5,2.72e-4 2.37e-4,2.93e-4 3.77e-4,4e-4 3.77e-4,2.3e-4 3e-6,-1.35e-4 -2.41e-4,-3.99e-4 -4.11e-4,-5.44e-4 z m -0.002,-0.0046 c -2.5e-4,-2.81e-4 -2.54e-4,-1.46e-4 -7.6e-5,3.37e-4 1.15e-4,4.35e-4 4.46e-4,9.69e-4 4.8e-4,0.0012 2.46e-4,2.81e-4 2.49e-4,1.46e-4 7.5e-5,-3.38e-4 -1.15e-4,-4.36e-4 -4.45e-4,-9.69e-4 -4.79e-4,-0.0012 z"
       style="fill:#4aff86;fill-opacity:1;stroke:none;stroke-width:0.00413345;stroke-miterlimit:4;stroke-dasharray:none" />
    <path
       inkscape:connector-curvature="0"
       id="path1010"
       d="m 34.887371,14.588121 c -3.77e-4,-1.52e-4 -7.62e-4,-5.08e-4 -0.0011,-9e-4 -2.4e-4,-4e-4 -4.1e-4,-5.45e-4 -3.76e-4,-2.3e-4 -1.5e-4,6.9e-4 -0.0034,-0.0026 -0.0053,-0.0054 -0.0021,-0.0028 -0.0022,-0.0037 -0.0019,-0.0041 6.16e-4,-5.44e-4 0.0032,6.18e-4 0.0037,0.0016 2.99e-4,6.18e-4 4.11e-4,6.54e-4 3.77e-4,1.52e-4 -5e-5,-3.41e-4 -4.3e-5,-6.17e-4 1.8e-5,-5.44e-4 6.6e-5,6.7e-5 7.62e-4,7.61e-4 0.0019,0.0015 7.62e-4,8.31e-4 0.0023,0.002 0.0028,0.0028 0.0017,0.0025 0.0018,0.0057 -4.8e-5,0.0051 z m -0.0032,-0.0057 c -2.49e-4,-2.8e-4 -2.53e-4,-1.45e-4 -7.5e-5,3.38e-4 1.15e-4,4.36e-4 4.45e-4,9.69e-4 4.8e-4,0.0012 2.46e-4,2.81e-4 2.49e-4,1.46e-4 7.5e-5,-3.37e-4 -1.15e-4,-4.36e-4 -4.46e-4,-9.69e-4 -4.8e-4,-0.0012 z"
       style="fill:#4aff86;fill-opacity:1;stroke:none;stroke-width:0.00413345;stroke-miterlimit:4;stroke-dasharray:none" />
    <path
       inkscape:connector-curvature="0"
       id="path1012"
       d="m 34.948923,14.730268 c -0.0034,-0.0021 -0.01553,-0.02835 -0.01813,-0.03938 -6.35e-4,-0.0027 -6.99e-4,-0.0044 -1.1e-4,-0.0037 2.49e-4,2.78e-4 3.07e-4,2.2e-4 2.36e-4,-2.98e-4 -1.46e-4,-0.0013 0.0036,0.0039 0.0058,0.0082 0.0066,0.01235 0.01447,0.03344 0.01269,0.03382 -1.93e-4,6.1e-5 -2.44e-4,2.84e-4 -1.7e-5,5.46e-4 4.11e-4,6.53e-4 2.29e-4,0.0012 -5.82e-4,9e-4 z m -0.0038,-0.01114 c -1.85e-4,-2.11e-4 -1.15e-4,1.51e-4 1.6e-4,9e-4 2.96e-4,7.61e-4 5.48e-4,0.0015 8.89e-4,0.0017 1.86e-4,2.12e-4 1.16e-4,-1.51e-4 -1.6e-4,-8.99e-4 -2.96e-4,-7.62e-4 -5.48e-4,-0.0015 -8.89e-4,-0.0017 z m -0.0049,-0.01108 c -1.86e-4,-2.11e-4 -1.16e-4,1.53e-4 1.63e-4,9e-4 2.96e-4,7.62e-4 5.48e-4,0.0015 8.89e-4,0.0017 1.85e-4,2.1e-4 1.12e-4,-1.53e-4 -1.64e-4,-9e-4 -2.96e-4,-7.62e-4 -5.48e-4,-0.0015 -8.88e-4,-0.0017 z m -0.0039,-0.0089 c -2.46e-4,-2.82e-4 -2.54e-4,-1.45e-4 -7.6e-5,3.36e-4 1.16e-4,4.37e-4 4.45e-4,9.69e-4 4.8e-4,0.0012 2.46e-4,2.82e-4 2.53e-4,1.45e-4 7.5e-5,-3.37e-4 -1.15e-4,-4.35e-4 -4.45e-4,-9.69e-4 -4.79e-4,-0.0012 z m -0.0044,-0.01001 c -2.45e-4,-2.81e-4 -2.52e-4,-1.45e-4 -7.5e-5,3.37e-4 1.15e-4,4.36e-4 4.46e-4,9.69e-4 4.8e-4,0.0012 2.46e-4,2.81e-4 2.53e-4,1.45e-4 7.5e-5,-3.37e-4 -1.15e-4,-4.36e-4 -4.45e-4,-9.69e-4 -4.8e-4,-0.0012 z"
       style="fill:#4aff86;fill-opacity:1;stroke:none;stroke-width:0.00413345;stroke-miterlimit:4;stroke-dasharray:none" />
    <path
       inkscape:connector-curvature="0"
       id="path1014"
       d="m 39.315075,9.371909 -0.02117,-0.02464 0.0057,-0.01228 c 0.412088,-0.893829 0.743555,-1.726244 0.985896,-2.4759 0.04684,-0.144895 0.107653,-0.344028 0.139556,-0.456985 l 0.0034,-0.01165 0.02645,-0.0261 0.02645,-0.0261 -0.005,0.01853 c -0.01151,0.04259 -0.03875,0.139681 -0.05469,0.194952 C 40.203888,7.30658 39.903115,8.11977 39.51995,8.9897 39.46536,9.113637 39.38123,9.300173 39.340514,9.387554 l -0.0042,0.009 z"
       style="fill:#4aff86;fill-opacity:1;stroke:none;stroke-width:0.0165338;stroke-miterlimit:4;stroke-dasharray:none" />
    <path
       inkscape:connector-curvature="0"
       id="path1016"
       d="m 40.58161,5.870224 -0.0138,-0.01573 0.01202,-0.05289 c 0.05942,-0.261516 0.102487,-0.512891 0.137209,-0.800851 0.05997,-0.497366 0.07907,-1.031525 0.0525,-1.468478 -0.0076,-0.124585 -0.01788,-0.23595 -0.03103,-0.335115 l -0.0046,-0.03483 0.02007,-0.01981 0.02004,-0.0198 6.98e-4,0.0048 c 3.43e-4,0.0026 0.0041,0.02471 0.0079,0.04908 0.07217,0.448829 0.07796,0.966031 0.01719,1.531921 -0.03398,0.316564 -0.08781,0.643267 -0.165221,1.002988 -0.0092,0.04301 -0.03648,0.1639 -0.03882,0.172363 -3.43e-4,0.0017 -0.0036,-0.0013 -0.01439,-0.01364 z"
       style="fill:#4aff86;fill-opacity:1;stroke:none;stroke-width:0.0165338;stroke-miterlimit:4;stroke-dasharray:none" />
    <path
       inkscape:connector-curvature="0"
       id="path1018"
       d="m 40.735374,3.157215 c -6.99e-4,-6.92e-4 -0.0066,-0.03353 -0.01284,-0.07289 C 40.695884,2.920713 40.661074,2.789183 40.600639,2.624029 40.48056,2.295812 40.287453,1.967736 40.06494,1.713904 l -0.04295,-0.049 0.02788,-0.02749 0.02788,-0.02749 0.04575,0.05213 c 0.313522,0.357207 0.529707,0.83042 0.637562,1.395566 l 0.01233,0.06469 -0.01839,0.01814 c -0.01014,0.01 -0.01894,0.0175 -0.01955,0.01676 z"
       style="fill:#4aff86;fill-opacity:1;stroke:none;stroke-width:0.0467647;stroke-miterlimit:4;stroke-dasharray:none" />
    <path
       inkscape:connector-curvature="0"
       id="path1020"
       d="M 39.983191,1.623407 C 39.708659,1.339776 39.448753,1.162383 39.113481,1.029806 38.851616,0.92625698 38.595103,0.86146998 38.276605,0.81843398 c -0.148208,-0.02002 -0.268391,-0.02976 -0.454999,-0.03682 -0.223489,-0.0085 -0.376225,-0.0071 -0.585701,0.0051 l -0.08878,0.0052 0.02918,-0.03045 0.02918,-0.03045 0.108156,-0.0046 c 0.182159,-0.0077 0.285942,-0.0076 0.495537,5.08e-4 0.198227,0.0076 0.320502,0.01743 0.468019,0.03752 0.547875,0.07458 1.005252,0.23748302 1.384528,0.49310502 0.137216,0.09248 0.25955,0.194631 0.387714,0.323744 l 0.02833,0.02859 -0.02758,0.0272 -0.02758,0.0272 z"
       style="fill:#4aff86;fill-opacity:1;stroke:none;stroke-width:0.0467647;stroke-miterlimit:4;stroke-dasharray:none" />
    <path
       inkscape:connector-curvature="0"
       id="path1022"
       d="m 37.07256,0.79806598 c -0.205718,0.01464 -0.508236,0.05302 -0.768017,0.09745 C 34.706254,1.168873 32.746604,1.906806 30.561676,3.058068 30.437866,3.123308 30.113485,3.297499 30.07359,3.320171 l -0.01552,0.0088 -0.01383,-0.01577 c -0.01373,-0.01564 -0.01376,-0.01581 -0.0039,-0.02161 0.0055,-0.0033 0.06904,-0.03807 0.141314,-0.07744 1.9262,-1.049509 3.667636,-1.7809 5.16875,-2.170836 0.506024,-0.13144802 0.990161,-0.22385902 1.441527,-0.27515602 0.126567,-0.01438 0.339225,-0.03335 0.393256,-0.03508 l 0.0186,-6.18e-4 -0.03083,0.03031 -0.03086,0.03032 -0.06952,0.0049 z"
       style="fill:#4aff86;fill-opacity:1;stroke:none;stroke-width:0.0467647;stroke-miterlimit:4;stroke-dasharray:none" />
    <path
       transform="scale(0.26458333)"
       inkscape:connector-curvature="0"
       id="path1024"
       d=""
       style="fill:#4aff86;fill-opacity:1;stroke:none;stroke-width:0.501099;stroke-miterlimit:4;stroke-dasharray:none" />
    <path
       inkscape:connector-curvature="0"
       id="path1026"
       d="m 29.615804,3.575452 c -0.427533,0.241134 -0.874576,0.504144 -1.312709,0.772312 -0.05746,0.03517 -0.132153,0.08107 -0.13254,0.08146 -1.33e-4,1.3e-4 -0.0062,-0.0064 -0.01333,-0.01462 -0.01221,-0.0139 -0.01298,-0.01492 -0.0119,-0.01549 6.35e-4,-3.99e-4 0.01696,-0.01038 0.03627,-0.02232 0.450415,-0.278429 0.925979,-0.560642 1.37785,-0.81766 0.06422,-0.03653 0.06962,-0.03957 0.07029,-0.03954 2.56e-4,1e-5 0.0067,0.0072 0.01433,0.01604 l 0.01384,0.01605 z"
       style="fill:#4aff86;fill-opacity:1;stroke:none;stroke-width:0.00826691;stroke-miterlimit:4;stroke-dasharray:none" />
    <path
       inkscape:connector-curvature="0"
       id="path1028"
       d="m 30.023364,3.348758 c -0.06312,0.03427 -0.255725,0.141082 -0.334901,0.185719 -0.01157,0.0065 -0.02314,0.01299 -0.02569,0.01437 l -0.0046,0.0025 -0.01398,-0.01593 c -0.0077,-0.0088 -0.01378,-0.01613 -0.01352,-0.01639 0.0025,-0.0026 0.402773,-0.225992 0.407913,-0.227735 5.82e-4,-1.83e-4 -2.97e-4,6.54e-4 -0.0019,0.0019 -0.0057,0.0045 -0.0054,0.0052 0.0086,0.02175 0.0089,0.01051 0.01219,0.01487 0.01149,0.01543 -5.14e-4,3.99e-4 -0.01552,0.0087 -0.03335,0.01835 z"
       style="fill:#4aff86;fill-opacity:1;stroke:none;stroke-width:0.0116912;stroke-miterlimit:4;stroke-dasharray:none" />
    <path
       inkscape:connector-curvature="0"
       id="path1030"
       d="m 30.326689,3.183234 c -0.0799,0.04272 -0.213257,0.114702 -0.242828,0.131081 -0.0093,0.0052 -0.02547,0.0143 -0.02573,0.01455 -2.65e-4,2.62e-4 -0.02263,-0.02592 -0.02348,-0.0276 -0.0022,-0.0042 -0.0016,-0.0052 0.0056,-0.0094 0.01148,-0.0068 0.149624,-0.08221 0.25009,-0.136552 l 0.03574,-0.01933 0.01423,0.01607 c 0.01131,0.01278 0.01416,0.01613 0.01388,0.01638 -2.12e-4,1.83e-4 -0.01257,0.0069 -0.02751,0.01482 z"
       style="fill:#4aff86;fill-opacity:1;stroke:none;stroke-width:0.00413345;stroke-miterlimit:4;stroke-dasharray:none" />
    <path
       inkscape:connector-curvature="0"
       id="path1032"
       d="M 30.319806,3.186963 C 30.187428,3.257833 30.083653,3.3141 30.059172,3.328271 l -0.0013,6.92e-4 -0.01137,-0.01323 c -0.01229,-0.01428 -0.01339,-0.01581 -0.01307,-0.01813 1.94e-4,-0.0015 0.0024,-0.0033 0.0075,-0.0062 0.01604,-0.0093 0.213078,-0.116678 0.281468,-0.153453 l 0.0036,-0.0019 0.01423,0.01608 c 0.01132,0.01278 0.01417,0.01614 0.01389,0.01639 -2.08e-4,1.86e-4 -0.01567,0.0085 -0.03439,0.01854 z"
       style="fill:#4aff86;fill-opacity:1;stroke:none;stroke-width:0.00413345;stroke-miterlimit:4;stroke-dasharray:none" />
    <path
       inkscape:connector-curvature="0"
       id="path1034"
       d="m 30.342536,3.174842 c -0.03484,0.01857 -0.110186,0.05906 -0.166434,0.08946 -0.07213,0.03897 -0.09097,0.04928 -0.116916,0.06398 l -0.0013,6.92e-4 -0.01137,-0.01323 c -0.01221,-0.0142 -0.01338,-0.01581 -0.01308,-0.01807 3.02e-4,-0.0023 0.0025,-0.0037 0.02323,-0.01512 0.04832,-0.02665 0.165048,-0.09025 0.2331,-0.127012 l 0.03625,-0.01958 0.01424,0.01608 c 0.01346,0.01519 0.01421,0.0161 0.01374,0.01651 -2.81e-4,2.44e-4 -0.0055,0.0031 -0.01152,0.0063 z"
       style="fill:#4aff86;fill-opacity:1;stroke:none;stroke-width:0.00413345;stroke-miterlimit:4;stroke-dasharray:none" />
    <text
       id="text1042"
       y="121.51083"
       x="-31.243807"
       style="font-style:normal;font-variant:normal;font-weight:normal;font-stretch:normal;font-size:10.5833px;line-height:1.25;font-family:Nasalization;-inkscape-font-specification:Nasalization;letter-spacing:0px;word-spacing:0px;fill:#000000;fill-opacity:1;stroke:none;stroke-width:0.264583"
       xml:space="preserve" />
    <text
       id="text1046"
       y="36.599155"
       x="37.0998"
       style="font-style:normal;font-variant:normal;font-weight:normal;font-stretch:normal;font-size:10.5833px;line-height:1.25;font-family:Nasalization;-inkscape-font-specification:Nasalization;letter-spacing:0px;word-spacing:0px;fill:#000000;fill-opacity:1;stroke:none;stroke-width:0.264583"
       xml:space="preserve"><tspan
         style="font-size:22.5778px;stroke-width:0.264583"
         y="36.599155"
         x="37.0998"
         id="tspan1044"
         sodipodi:role="line">rbytes</tspan></text>
  </g>
</svg>
