<svg id="svg8" xmlns="http://www.w3.org/2000/svg" viewBox="0 0 323.93 246.34"><defs><style>.cls-1{font-size:94px;}.cls-1,.cls-2,.cls-4{fill:#00d4dd;}.cls-1,.cls-4{font-family:Potra;}.cls-3,.cls-4{isolation:isolate;}.cls-4{font-size:64px;}.cls-5{letter-spacing:-0.02em;}</style></defs><g id="layer1"><text class="cls-1" transform="translate(24.02 224.06)">O</text><path id="path835" class="cls-2" d="M2.34-118.75c-17.51,17.28-18.49,46.33-2.2,64.9a44.27,44.27,0,0,0,4.44,4.33l.72-.32c9.91-4.38,22.84-13.9,34.89-25.78s21.91-24.9,26.73-35l.36-.77a45.9,45.9,0,0,0-3.74-5C47.25-135,19.84-136,2.34-118.75Zm65.93,11.88C62.91-96.63,53.52-84.56,42.18-73.36h0C30.84-62.18,18.82-53.1,8.8-48.15c.39.27.76.58,1.15.84a41.75,41.75,0,0,0,3.66,2.11l.15.08A229.19,229.19,0,0,0,44.48-70.74a234.56,234.56,0,0,0,26.26-30.64c-.37-1-.76-2.05-1.21-3h0c-.38-.84-.83-1.64-1.26-2.45ZM73-99.35A237.91,237.91,0,0,1,46.46-68.48h0A230.67,230.67,0,0,1,15.54-42.65a41.44,41.44,0,0,0,45.8-8.87C73.66-63.71,78.2-82.36,73-99.35Z" transform="translate(11.46 144.41)"/><path id="path859" class="cls-2" d="M68.22-110l.55.86a45,45,0,0,1,2.07,4c.59,1.29,1.11,2.61,1.58,4,13.49-19.22,18.51-34.57,13.27-40.6-5.52-6.22-21.32-1.38-41.39,12.68.81.24,1.61.5,2.41.79,1.36.53,2.69,1.13,4,1.79.88.48,1.76,1,2.61,1.52,8.2-3.87,14.16-4.37,16.8-1.4,2.47,2.84,1.8,8.61-1.89,16.38Z" transform="translate(11.46 144.41)"/><path id="path857" class="cls-2" d="M5.86-48.42C6.93-47.56,8-46.75,9.19-46A41.16,41.16,0,0,0,13-43.8q.47.22.93.42A228.15,228.15,0,0,0,45.47-69.61a236.07,236.07,0,0,0,27-31.53c-.47-1.34-1-2.66-1.58-4a45,45,0,0,0-2.07-4l-.55-.86c-4.95,10.44-14.9,23.5-27,35.49S16-52.91,5.86-48.42Z" transform="translate(11.46 144.41)"/><path id="circle841" class="cls-2" d="M63.54-116.42c16.29,18.56,15.31,47.62-2.2,64.9h0C43.84-34.24,16.43-35.29.14-53.85s-15.31-47.62,2.2-64.9h0C19.84-136,47.25-135,63.54-116.42Z" transform="translate(11.46 144.41)"/><polygon id="circle846" class="cls-2" points="179.34 190.66 179.34 190.66 179.34 190.66 179.34 190.66 179.34 190.66"/><path id="path974" class="cls-2" d="M60,70.43A188,188,0,0,1,41,86.07c-2,1.39-2.38,1.61-2.78,1.47s-.1-.4.17-.23,0,.55-.69,1c-1.31.94-6.41,4-8.77,5.27C22.24,97.18,16.38,99,12.26,98.72c-2.42-.15-3.71-.69-4.91-2C3.73,92.55,6.1,83,13.87,70.38,16,67,19.5,62,19.74,62a5.09,5.09,0,0,1,1.49,2.24,21.22,21.22,0,0,0,1.49,2.89c.31.77.85.88.84,1.07s-2.37,3-2.69,3.7C18.7,76.54,18,81.09,19,83.32c.94,2,2.86,2.89,5.79,2.65,1.44-.12,6.63-1.59,7-2,.11-.11.25-.13.31-.06s.21,0,.32,0,1.41-.81,2.89-1.6c7.34-3.86,14.81-9.51,23.3-17.6,10.32-9.84,18.7-20.39,23-28.89l.59-1.18.33.34c.32.33.32.32.09-.15s0-.93.57-2.41a19.4,19.4,0,0,0,1.7-6.59c.22-3.18-.63-4.9-2.85-5.78-2-.81-5.5-.34-9.47,1.26l-5,2.26-1.31-1.05c-1-.53-1.4-2.14-2.28-2.48-1.86-.72-.93-.95,1.72-2.71C78.39,8.87,89,5.22,94.2,7.5a6.28,6.28,0,0,1,3.3,4,16.4,16.4,0,0,1-.14,6.62c-1.1,5-4.71,12.58-9.57,20-2,3.11-2.08,3.15-2.39,2.58-.18-.35-.19-.32,0,.14s.09.74-1.49,2.9A186.22,186.22,0,0,1,68.67,61.8c-3.74,4-4.76,5-8.64,8.63ZM32.82,84.13h0" transform="translate(11.46 144.41)"/><path id="path996" class="cls-2" d="M70.45-106h0a.78.78,0,0,1-.28-.26.46.46,0,0,1-.12-.21s0,0,.14,0a.66.66,0,0,1,.2.14l.06.08h0s0,0,0,0h0v0a.24.24,0,0,1,0,.17,0,0,0,0,1,0,0Zm0,0a.11.11,0,0,0,0-.08.19.19,0,0,0-.07-.13l-.08-.1-.07-.06,0,0h0l-.11,0s0,0,0,0,0,0,0,.06a1.24,1.24,0,0,0,.16.24.91.91,0,0,0,.19.16h0a0,0,0,0,0,0,0,0,0,0,0,0,0,0Zm0,0Zm0,0Zm0,0Zm-.19-.39Zm0,0Zm0,0Z" transform="translate(11.46 144.41)"/><path id="path998" class="cls-2" d="M70.38-106.07a0,0,0,0,0,0,0v0h0s0,0,0,0Zm0,0Zm0,0Zm0,0Zm0,0h0Z" transform="translate(11.46 144.41)"/><path id="path1000" class="cls-2" d="M70.33-106.18h0v0h0Zm0,0Zm0,0Zm0,0Zm0,0Z" transform="translate(11.46 144.41)"/><path id="path1002" class="cls-2" d="M70.28-106.29h0a0,0,0,0,1,0,0Zm0,0Zm0,0Zm0,0Z" transform="translate(11.46 144.41)"/><path id="path1004" class="cls-2" d="M70.25-106.36h0s0,0,0,0a0,0,0,0,1,0,0Zm0,0Zm0,0h0Zm0,0Zm0,0Z" transform="translate(11.46 144.41)"/><path id="path1006" class="cls-2" d="M71.14-104.69a4.09,4.09,0,0,0-.36-.73l-.07-.06s0,0,0,0,0,0,0,.05l0,0s0,0,0,0,0,0,0,0a1.75,1.75,0,0,0,.08.31c.05.16.13.38.21.57v0h0l-.09-.21c-.08-.22-.13-.36-.17-.5a1,1,0,0,1,0-.27v0h0v0h0s.1.06.17.19a3.61,3.61,0,0,1,.29.59.16.16,0,0,1,0,0h0Zm-.45-.74Zm0,0Zm0,0Zm0,0Zm0,0Zm0,0Zm0,0Zm0,0Z" transform="translate(11.46 144.41)"/><path id="path1008" class="cls-2" d="M70.77-105.25l0-.06a0,0,0,0,1,0,0h0l0,0a0,0,0,0,1,0,0Zm0,0Zm0,0Zm0,0Zm0,0Zm0,0Zm0,0Zm0,0Z" transform="translate(11.46 144.41)"/><path id="path1010" class="cls-2" d="M70.85-105.09h0a0,0,0,0,1,0,0h0v0Zm0,0Z" transform="translate(11.46 144.41)"/><path id="path1012" class="cls-2" d="M71-104.69a.38.38,0,0,1,0-.11h0l0,0s0,.1,0,.1Zm0,0Zm0,0Zm0,0h0Zm0,0Z" transform="translate(11.46 144.41)"/><path id="path1014" class="cls-2" d="M83.4-119.88l-.06-.07v0a65.45,65.45,0,0,0,2.8-7c.13-.41.3-1,.39-1.3v0l.08-.07.07-.08v.06c0,.12-.11.39-.16.55A55.29,55.29,0,0,1,84-121l-.51,1.13v0Z" transform="translate(11.46 144.41)"/><path id="path1016" class="cls-2" d="M87-129.8l0,0,0-.15a21.43,21.43,0,0,0,.39-2.27,23.72,23.72,0,0,0,.15-4.16c0-.35,0-.67-.09-.95v-.1l.06-.06,0-.05h0a.5.5,0,0,1,0,.14,16.82,16.82,0,0,1,0,4.34,28.11,28.11,0,0,1-.47,2.85c0,.12-.11.46-.11.49l0,0Z" transform="translate(11.46 144.41)"/><path id="path1018" class="cls-2" d="M87.42-137.49s0-.1,0-.21A7.28,7.28,0,0,0,87-139a8.45,8.45,0,0,0-1.52-2.58l-.12-.13.08-.08.08-.08.13.15a8.26,8.26,0,0,1,1.81,3.95l0,.19,0,.05-.06,0Z" transform="translate(11.46 144.41)"/><path id="path1020" class="cls-2" d="M85.29-141.84a6.52,6.52,0,0,0-2.46-1.68,9.43,9.43,0,0,0-2.38-.6,11.32,11.32,0,0,0-1.29-.11,15.23,15.23,0,0,0-1.66,0h-.25l.08-.08.09-.09h.3a11,11,0,0,1,1.41,0c.56,0,.91,0,1.33.1a9.28,9.28,0,0,1,3.92,1.4,6.63,6.63,0,0,1,1.1.92l.08.08-.08.08-.08.07Z" transform="translate(11.46 144.41)"/><path id="path1022" class="cls-2" d="M77-144.18c-.58,0-1.44.15-2.18.28-4.53.77-10.08,2.86-16.28,6.13-.35.18-1.27.67-1.38.74l0,0,0,0s0,0,0-.06l.4-.22a66.63,66.63,0,0,1,14.65-6.16,30.74,30.74,0,0,1,4.09-.78l1.11-.1h0l-.08.09-.09.08-.2,0Z" transform="translate(11.46 144.41)"/><path id="path1024" class="cls-2" d="M-119.26-366" transform="translate(11.46 144.41)"/><path id="path1026" class="cls-2" d="M55.9-136.31c-1.21.69-2.48,1.43-3.72,2.19l-.37.23,0,0,0,0,.11-.07c1.27-.79,2.62-1.59,3.9-2.31l.2-.12,0,.05,0,0Z" transform="translate(11.46 144.41)"/><path id="path1028" class="cls-2" d="M57.06-136.95l-1,.53-.07,0h0l0,0s0-.05,0-.05l1.15-.64h0s0,0,0,.06,0,.05,0,.05l-.09.05Z" transform="translate(11.46 144.41)"/><path id="path1030" class="cls-2" d="M57.92-137.42l-.69.37-.07,0-.07-.08s0,0,0,0l.71-.39.1-.05,0,0,0,0-.08,0Z" transform="translate(11.46 144.41)"/><path id="path1032" class="cls-2" d="M57.9-137.41l-.74.4h0l0,0s0-.05,0-.06,0,0,0,0l.8-.44h0l0,0,0,0-.1.05Z" transform="translate(11.46 144.41)"/><path id="path1034" class="cls-2" d="M58-137.44l-.47.25-.33.18h0l0,0s0-.05,0-.06,0,0,.06,0l.66-.36.11-.05,0,0,0,0,0,0Z" transform="translate(11.46 144.41)"/><g id="text1046" class="cls-3"><text class="cls-4" transform="translate(91.23 226.35)">r<tspan class="cls-5" x="41.28" y="0">b</tspan><tspan x="80.77" y="0">ytes</tspan></text></g></g></svg>